<mxfile host="65bd71144e">
    <diagram id="hgaW7pqaUtNoVBjmuCnG" name="ページ1">
        <mxGraphModel dx="274" dy="775" grid="1" gridSize="10" guides="1" tooltips="1" connect="1" arrows="1" fold="1" page="0" pageScale="1" pageWidth="827" pageHeight="1169" math="0" shadow="0">
            <root>
                <mxCell id="0"/>
                <mxCell id="1" parent="0"/>
                <mxCell id="18" value="" style="edgeStyle=none;html=1;startArrow=classic;startFill=1;" edge="1" parent="1" source="2" target="5">
                    <mxGeometry relative="1" as="geometry"/>
                </mxCell>
                <mxCell id="2" value="Bedrock" style="sketch=0;points=[[0,0,0],[0.25,0,0],[0.5,0,0],[0.75,0,0],[1,0,0],[0,1,0],[0.25,1,0],[0.5,1,0],[0.75,1,0],[1,1,0],[0,0.25,0],[0,0.5,0],[0,0.75,0],[1,0.25,0],[1,0.5,0],[1,0.75,0]];outlineConnect=0;fontColor=#232F3E;fillColor=#01A88D;strokeColor=#ffffff;dashed=0;verticalLabelPosition=bottom;verticalAlign=top;align=center;html=1;fontSize=12;fontStyle=0;aspect=fixed;shape=mxgraph.aws4.resourceIcon;resIcon=mxgraph.aws4.bedrock;" vertex="1" parent="1">
                    <mxGeometry x="1480" y="320" width="78" height="78" as="geometry"/>
                </mxCell>
                <mxCell id="16" style="edgeStyle=none;html=1;startArrow=classic;startFill=1;" edge="1" parent="1" source="3" target="4">
                    <mxGeometry relative="1" as="geometry"/>
                </mxCell>
                <mxCell id="3" value="API Gateway" style="sketch=0;points=[[0,0,0],[0.25,0,0],[0.5,0,0],[0.75,0,0],[1,0,0],[0,1,0],[0.25,1,0],[0.5,1,0],[0.75,1,0],[1,1,0],[0,0.25,0],[0,0.5,0],[0,0.75,0],[1,0.25,0],[1,0.5,0],[1,0.75,0]];outlineConnect=0;fontColor=#232F3E;fillColor=#8C4FFF;strokeColor=#ffffff;dashed=0;verticalLabelPosition=bottom;verticalAlign=top;align=center;html=1;fontSize=12;fontStyle=0;aspect=fixed;shape=mxgraph.aws4.resourceIcon;resIcon=mxgraph.aws4.api_gateway;" vertex="1" parent="1">
                    <mxGeometry x="1160" y="320" width="78" height="78" as="geometry"/>
                </mxCell>
                <mxCell id="17" value="" style="edgeStyle=none;html=1;startArrow=classic;startFill=1;" edge="1" parent="1" source="4" target="2">
                    <mxGeometry relative="1" as="geometry"/>
                </mxCell>
                <mxCell id="4" value="Lambda" style="sketch=0;points=[[0,0,0],[0.25,0,0],[0.5,0,0],[0.75,0,0],[1,0,0],[0,1,0],[0.25,1,0],[0.5,1,0],[0.75,1,0],[1,1,0],[0,0.25,0],[0,0.5,0],[0,0.75,0],[1,0.25,0],[1,0.5,0],[1,0.75,0]];outlineConnect=0;fontColor=#232F3E;fillColor=#ED7100;strokeColor=#ffffff;dashed=0;verticalLabelPosition=bottom;verticalAlign=top;align=center;html=1;fontSize=12;fontStyle=0;aspect=fixed;shape=mxgraph.aws4.resourceIcon;resIcon=mxgraph.aws4.lambda;" vertex="1" parent="1">
                    <mxGeometry x="1320" y="320" width="78" height="78" as="geometry"/>
                </mxCell>
                <mxCell id="19" value="" style="edgeStyle=none;html=1;startArrow=classic;startFill=1;" edge="1" parent="1" source="5" target="6">
                    <mxGeometry relative="1" as="geometry"/>
                </mxCell>
                <mxCell id="5" value="opensearch service&lt;div&gt;index&lt;/div&gt;" style="sketch=0;outlineConnect=0;fontColor=#232F3E;gradientColor=none;fillColor=#8C4FFF;strokeColor=none;dashed=0;verticalLabelPosition=bottom;verticalAlign=top;align=center;html=1;fontSize=12;fontStyle=0;aspect=fixed;pointerEvents=1;shape=mxgraph.aws4.opensearch_service_index;" vertex="1" parent="1">
                    <mxGeometry x="1640" y="320" width="78" height="78" as="geometry"/>
                </mxCell>
                <mxCell id="6" value="s3" style="sketch=0;points=[[0,0,0],[0.25,0,0],[0.5,0,0],[0.75,0,0],[1,0,0],[0,1,0],[0.25,1,0],[0.5,1,0],[0.75,1,0],[1,1,0],[0,0.25,0],[0,0.5,0],[0,0.75,0],[1,0.25,0],[1,0.5,0],[1,0.75,0]];outlineConnect=0;fontColor=#232F3E;fillColor=#7AA116;strokeColor=#ffffff;dashed=0;verticalLabelPosition=bottom;verticalAlign=top;align=center;html=1;fontSize=12;fontStyle=0;aspect=fixed;shape=mxgraph.aws4.resourceIcon;resIcon=mxgraph.aws4.s3;" vertex="1" parent="1">
                    <mxGeometry x="1800" y="320" width="78" height="78" as="geometry"/>
                </mxCell>
                <mxCell id="7" value="ナレッジ" style="whiteSpace=wrap;html=1;shape=mxgraph.basic.document" vertex="1" parent="1">
                    <mxGeometry x="1870" y="410" width="70" height="60" as="geometry"/>
                </mxCell>
                <mxCell id="8" value="ナレッジ" style="whiteSpace=wrap;html=1;shape=mxgraph.basic.document" vertex="1" parent="1">
                    <mxGeometry x="1880" y="420" width="70" height="60" as="geometry"/>
                </mxCell>
                <mxCell id="9" value="ナレッジ" style="whiteSpace=wrap;html=1;shape=mxgraph.basic.document" vertex="1" parent="1">
                    <mxGeometry x="1890" y="430" width="70" height="60" as="geometry"/>
                </mxCell>
                <mxCell id="20" value="" style="shape=image;verticalLabelPosition=bottom;labelBackgroundColor=default;verticalAlign=top;aspect=fixed;imageAspect=0;image=data:image/png,iVBORw0KGgoAAAANSUhEUgAAASYAAALvCAYAAADIy2g7AAAAAXNSR0IArs4c6QAAAARnQU1BAACxjwv8YQUAAAAJcEhZcwAADsMAAA7DAcdvqGQAAK8RSURBVHhe7N1/XJRV/v//R6mDLqwIGZA/sCwjyx8hpbYmq2L4hk3RCjYX6SOuhpvglmL5g0wNTRO1FWwlXfArki60KlqwkpiLmqAp+VtCSfFHQAZCMwGjxPePGWDmYoBBEcZ83W+36xZzzrmuuWZsnpxzros591VVVVUhhBAW5L6WCKZtx35hd3Y5Ry5pOX/tJkWaSgDsrdvwaOe2uHVXMdKlPeP6/065qxDiHnTHgqmk7FeWp5USfUDNNbUuiBrT2aYNQUNsmOXREdsO9yurhRD3iDsSTDEZat5Jum52ICl1tmnDMp9OTBpso6wSQtwDmj2YpiUU8fG+n5XFt+SNob9njZ+9slgI8RvXrMH0lw3X2HxEoyy+LePdrPl0YmdlsRDiN6zZJnKmJRQ1eygBbD6iYVpCkbJYCPEb1izBFJOhbrbhmykf7/uZmAy1slgI8Rt120O5krJfeWzRVZMT3VWRPZRFZrkv5KKyiM42bTg3v4tcrRPiHnDbn/LlaaUmQ6m5XVNXsjytVFkshPgNuu0e04NzLrdIMKHvNf34QTdlsbhjijh7MIdrdMC5fz+c78T9r79c4eixy/zSoRsDnu7KnXgKcfe5rWDaduwXXlr/o7L4jto6+cHbukM8d+syPs78BWzceOPdMfRUNrhrFfDlio/ZVah/2K4jPXo8guvo0Tzv1E7R1lxHifzbJk5gj/e7YYztoqxvBleTmfv+bq49OJKFi7x5SFkv7km3NZTbnV2uLLrjbu85z7AnvYDS0p8pvXqEzHPK+rubpuRnSkt/puxX4EYRZ4/uZ+PCBfzzaJmyqRAW7baC6cglrbLISFVkj1vaGtLYczbo+BGyKqCzkyPwM/v3nzGqvqH+mZLiMm4AN9RXOHEwkxOXb+gry/gh+zj7j+ZwTV9Us1/pz+Qdz2T/weOc/dGgsuJnSorrbjd+Ndj3xxyOHszkaHaRUTm/3tC1rwC4wS8Xz7D/4BnyKgzamGTPC28tJGLZYpb7PQyUkZVp/Dq5UaY736M5XFMe79cbXKt+nRWKF8oNfin+mRK1rvyGuvZnACqKOHu0nuOif035OZzILtC/LtN0/w4/U1KqfH5xr7itoVxj80uNhUx9TF2Vq3Y780wnYt4m8nAHhr/pw7XVmzjRbgAhH02gr77+0D9nsP54Bzo7wbX82l5Gx25doeAKNZ+TDgMIiZhA3/vh6Lq3WXv0Zk1bgN89N4WPXuvND0nhvPdf5T1Y+mGR0xW+jPiYxO8NejMdHsZ3xnRe6GYwxHF6mJ7qC+RW3y1xvyPe894xMawqYPv8ZST/WDvs+iX9n7y5OQeensgnQf0A+OXwBuZuOM4v1SF4fwdcJ4bxt2c7wK9X2P7+CpLzq+uAX6k95y76od2Dg/Duepzkb8ug3wQ++dsA8r5czcqtF/il+nToQM+X3mD2C10B+CV7K8vW7OeHmqxxxPu9dxj7q2IodzmZ9z7YzQ844j3nHcbe2j+1uMvdVo+p+lsC6nNfyMVb2hrS2HPW69czZB6/CVa96OPSmz6PARXHyTyubFgG3ccw472FhP2f7kNV+uPvGDHtHZa/9xJ9rYCyC5zXf3g7Pf0CIbMXsnzJQpa/N4Yn7odfMjM5Cti6jeG11/6s24Y/TDuADt1w7gS5n32iCyWn5wl57x1C3B2h7AKJnyTzg+HpFN+gh99Mlr83hecfBH4tIOtIgWELhVKyPtvAP6NWMP+zHLDpx2R/XSjxSyZrNxznF9sBTF22kk+W/Zm+7crI2vkVP6A7p+R8aPf4GMKWLGTh9GE4Kw8P8GMmX160p++AfvTt8Xv4fiurt17gl/sdGf63d1j4t+d56P4ycrfGsv0q8MtR/vXP/fxwowM9h/+ZGe+9w4wpL9DPSnFc9VEiV+7mh1870HfidAmle9htBdNd5ch+DlVAu6fd6EsHBrn1Am6S9Y1imAM81HcQTzj9Hudne9MZoGMPXF0csXXqRfeOxm17PvsCfbu01T343cN0f0A3ZLkJ/K5bP55/bhDP921HVsYFbtzviPeMiQz4XQHHz/wMtGXgKy/R18mRvuO9cL0f+PEEmdU9FoCOvRn2bFdsnXrzhH5m2GjIV8dNrl36nvOXSrl5P6A+zRdfXdFVnT3D2V/hd072/HIqk/2nSsEK+PEKl6g9J1fPYTjb/Z6HXLphqzw8AL35f0tmEjJlIiHevfjhZA6lQLtnxzC+nyMP9XsJn34ARboQPXucExVAjxf4m98gnnBy5IkBA+hpZ3DIX6/w2YpNnCiDh/7vDUKe7WBQKe41txVM9tZtlEV33K09Zxn7D+oC6Ma3mwh95z3m7/xe9/jIfg41+EFvWN6Xq3nzzXnMmvses95ZzZfKi5TqM6xfsokTFb9nYJBBL6ASoCOdaz6cjjz0AMAN/fDpVlXPMS3ko5VTGGh1kx+SN7E9H6jUjaN+ObObjRv/zcaNKZwoBaw60AFT52SmX3XHtbWr/YPrh5x0P9/4tfZ5se1YT9ABxWc4kQ+068ULHrqeqrh33VYwPdpZ31Ooh3JS29ytIY09p0m/HOdQNnB/W35npd///g78rp1+iHdEuYOZftnPZ1sv8IvNIEJWr+STf76D94MG9b9eYfuKdRwq7kDfibOZ3K+6F/A7rH8HUMQlfWeGX69w6SeADlg3V2fh/o7Y2gD8xLWfgDa62wbaPTuFT/65snarnmdrg/E5mel3v9Od8LWrtTteuqqbW/vd735X87z8kG88TDX0wDBe+z9HuJHDxhXJ5N1WOIu73W0Fk1t3lbLojruV5/zlm6Oc/RV4bAxLlul6ExHLFvKOh+63+omDmQaTtk1QcVO3X0Up1376mR+OZ3LS4Ob0s5s+1k0k29jT9tt/8891G/jnug18+f3vcXXT9QpObNtA8sFMktclceJXoIcbrk3tsRjRzzGt28A/V3zClz8BHfoxqDfw9CAGdoAbRzaxNGE/+w9msv/gfrbvPE4Jjjz/rP6cNq9m81eZfJWwn/PKw5tgO8AN5/uBk0n887+Z7P/vBhJOAvd3ZdCA39c8Lz/uZkVUMl8dzOSrpGSOFhsepS2P+kzXhXf+blZGH721fxPxm3BbwTTSpb2yyIhyUtvcrSGNPacpmRk5ADj36W90Z/FDTz1JR4Dsoxy9lU+B3SC8B3SAijNsXvge78VdoK3BHFSpRn/FTX2FrKPHa7az16DzC28Q8pw97YqPs33jv9n+7c+0e3AQIcHDdPNat+wmP5zRP1duGR17DOK1OboriNzfm8kzxtDzd2XkfrVVP5zbypenivgF6Px/gYx/qgOUXeCrhH/z2cl2OJkTkg8MY0bQIDq3+ZmspH+zMek4pW3seT7oDV54wOB5baD01G42b/w3m9PO8FOdWwY6MDBoCsPt4Jfjm1i29YKygbhH3NbtAphxy0Bzup1bBe6kG+qf+eVGW35n10F35a0pbpRRor4J7dpja9PkvW/ZjdKf+aUS+N3vsVVeHav4mZIbt3I+N/iluJwb1P9e3FD/zC+/tse2o6laIXRuq8cEEDSk5b7+tiWfqyna2fwe23o+iI1q1wFbu9/fQgjcnnYdf697XmUoAVjd6vm043d2Db8X7Wx+L6EkGnXbwTTLoyOdbW7lSlnTdLZpwywPxbV6IcRv0m0Hk22H+1nm00lZ3OyW+XSS72IS4h7RLJ/0SYNteGPo75XFzeaNob+XFVOEuIfc9uS3IVmMQAjRHJqlx1Tt04mdm7Xn9MbQ30soCXEPatYeUzVZ8FIIcTvuSDAhS4QLIW7DHQsmQ9uO/cLu7HKOXNJy/trNmq8usbduw6Od2+LWXcVIl/a39ZW5QojfjhYJJiGEaAoZLwkhLI4EkxDC4kgwCSEsjgSTEMLi3Pf110dk8lsIYVHkqpwQol6Vlebdg2jKf//7FX/600hlsVlkKCeEsDgSTEIIiyPBJISwOBJMQgiLI8EkhGiyPXv2EB8fz549e5RVzUKCSQjRJCdPnuTYsWMUFhZy7NgxTp48qWxy2ySYhBBm++WXX9i7d69R2d69e/nll1tZmLF+EkxCCLN98cUX3Lhxw6jsxo0bfPHFF0Zlt0uCSQhhlm+++YbLly8riwG4fPky33zzjbL4lkkwCSHMkpGRoSwy0lh9U0gwCSHM8thjjymLjDRW3xTyt3JCiHrJ38oJIYSeBJMQwuJIMAkhLI4EkxDC4kgwCSEsjlyVE0LUy9RVuf3795OdnU1paSkdO3bExcWF559/XtlMrsoJIVpGQkIChw8fprS0FIDS0lIOHz5MQkKCsultkWASQphl//79XLlyRVkMwJUrV9i/f7+y+JZJMAkhzJKdna0sMtJYfVNIMAkhzFI9fKtPY/VNIcF0r7t6kp07ktm5I5njV5WVd17Bt7rn3rk3h3JlpTCSX1DIrtQ7842RlqZVr8qVnNlDeo7uf0erXs/j2bujssk9qpDjO77horLY2pmBg/vgaK2suA27guk0YRsAvpuusG6UssGdlTqtK34JwBPzObYviB7KBgL0ofRhRCTHjp/k7ZkhjPIcoWxyRxhelVu1apVRnSlvvfVWzc936VW5POJeDyDgr1MI+OsU/GZspUDZ5J51kkj9+2K0vToKl4ddCdhaqNxB/IYZhpKTo0OLhVJrar1gOrOZdWcNHn+zgcTvDR4LABxfWkzcv9YR92EQAx0ACtkZNJl1rTDsEi1PGUrxG6OVTX6TWi2YspO264Yqz3sz2gogh3X/zlE2o7ykkILCQko0ABWUnDmgnxM5QLZG36iilOz9+rmK/TmU3zQ+BjcN99PvW1Jh0KCCkkLd85jadM9dq7wkh/TqY6WdpMDwUNVtivT7VlD/eZuhU98RjB7jzejA+aTGTKQ9AEfYmVa311SeU/saU78tND1no6k99/QcEyeO/v0qLKSgsFR/DP1jo/cMyq+eJLX6fTD1vteooCSvuq3yvTfF8N+jtIHj/rbdq6EEQFWrOFH1/pNdqmw7d6kavbGg6n+zHqmy7dylytZ1adVZRctdb+jaOfrPrQp+TvdzzeY0uio4bHLV406K8pFrqy5UH+BibNULhnUG2wvrLuobpVVNNlFfvQ2MrG5XUvW/2YPr1Nt2froq+POS6mesqqq6WBX5vP45FqytmtxP2d6zKjLXoHkdtedT+9xVVVVZS6se15dP/tygefl3VZH/p3yOLlW2/7e26uyN2mbX982t6qdo4/zoEzU/T/6vvmHu2qqBnbtU2Xb2rfrk8NaqCfp/K9s30nT1N76r2vhK7X41m9PoqsjT5bVPWFVVVXXFYH+DLXi3rrr639f2+dp/s7ORnjXthr7/TdV1w+PdI37IL6h6KzSsaoTn2Kq/BLyurG4xN2/erNmWL1/e6GbY/vPPv1Qezmyt02P69gviCgF64fm8A+4e3rryS9tJPKNoq1e+awOJViMICBiP7zP6SfKbR4hbm0b7weMICBinH+oA364l7lv9z5UVYNsHz4DxhH5oOCSCQwuiOQSAFY5dHIw3K/3+gFVb3X8vrvVlzPo8ABwHGT5nIXETxxBRt8PHoahF7LRXnDcniYw3c8mb6z9SUFjIxW+TmTVrtW4eznYiU2omqStInTGKsG8A2yGErllH3JrpuNsC3ywiZIO+Z6XZRvC4DbpeatteeAaMJyBgBD3KG7rEe4BZXsHsNOqcVZA6Ywwhe3X7uYzSHcelre7fI+yFmews0TfV7CHEvXZ/26d174Pn0w76nl9dJbuC8Vyoe29s/eLYGeaGrbLRPeCe7SlVUyZVS8icreghqbdWTdD/hnz8/RNGbU39Rq268UVtD6f6t3hVVVXV59NqftPW/PY3pabdH033XK6nVU1+VH/8kdW9jm+qQrvqy/4vtiq/uu2V2h6Z46z9+sLaHpPt61/UHLZKvbXK19R519FQD86zat5hg95ZwadVozt3qbLt/HTVvMO1xWdX/VHXfuynVflVVVX5G331+z9SFbqvtl3Vf028ZzU9pi5VLyzYX3W2oKDqurq86vr1coPnM3y9VVVV++ZWOVbvs66gqkrxnJONepS1DP99z363tmpo9eused/vTYa9pR/yde9na7h3ekw3D5AYp5tjcHzpT7gAWHszRt8DKFi7Wd+LaUDben7f6ns2dRnO8ezheGEDcxw3c4h6JYDEEuDp6aR+FqTrDXz/Den63Vz+NALH6vZdRjDmCd2P5QdP1r3Eb3iu1rZN/u3fvo83AQHjdT2uQQ7ASaK8euOp77mRdYB0XUuOfxpKyAzdFp6kr7+mmyc6lnFAf0RvXqj795b16jF4CC4ODthaW2Fra2XwfDDaY0htw+c9GK3/8VCWrsdz7HDtc44Z1citIEVbmeK1iOMAtuNIqH7f71Fvh4bg5OhAfkEhM2e9S35B3TnF37KWD6aMZPS5RMGGAFz6u+LSfzBh1WvoVWwmMdNwh9tUcoCwP/Skh7uf/rJ7AO5vJytb6dzMIcprGGHfVn843mFgU5OkmfV4+V0iV0YQuTKCdZ//r+Y+o0NzVpNq1DKP9LjNxOm3nSf1b3IPh9oQbWkGf5hePRyuV+FJjuuHgO09vBnUyu97a3NydGDF8vfv2XBq8WBK3byh9mpRSSEFV/VbTSemgrj/VP+mvX3piwOIygGsxrHuyBnyL5whe41+TstIKal/H6MLJfoQnhKFp+GHow1UTztdv244L1NBed1vhrhDOtLvmV76n7/hu+8Ne2RDiDx1hes/KrZN43TzOW2qj1FS5ypjkxj0AEs0Bj3PmyauATblOZ94h7j3+gBQvnUKo6NMTNjdY+7lcGrZYLq5h8Tqb0d4KYrsU1kG2y7CqodEnyaT3iyXiPM4flD/4fmTN77OHWlv3RFHa4OZbb3sKF/8EkoBZ6ZsSyS4+vNfzXkEnt11PxZs3cqh6s/kt1uJ03+GHEcNubN3LlfksPM/1R/YZ3j8EWDwEP0Q6gBRcXX/rKO8Qnei7sOqb8rbQ2Rs7Ye+ut5sNc8HqVu3UqL/dyrZsZlEfbmnfohn9JzrFOdW59/Xin7B6wh/Wvfo+MIxTNnV0MT8veFeDacWDaZyw/95R3nj6OBgsPVh9J+cdZUVG4hLM9zzVjnzeD/9j1vfJyBqA1EzxuAyUfcnGDXyopmivxIEeawb15tOD3at3abtAXoR8sE43RzRpWg8H3XFpb8rTi+s1s8rjSA8RPcbvzllL3yu9jy6DSNcf1Nqv/en4wlgPY6Qybr5m+ylw3B6THdeLv1dcenWFacZut5n+zFvMkXfAzy+cBhOT7ni8lRPnP5az7C2PtbjCNP3bNgVSo8nXHHp35seQfq/4eo+nbAxuuA3es7Fw3DqpjuvHg91ZYrJf19ngj+Lw9cWoJTECb663u49ThlOx46ZeUX3LtaCwVTBzh3VH4IhjH6+bq/F5f/G1syHJG7eVue3/63wXBJHgANAHjsXziNs8yUGzpzIQMNGlWBOv8F2VBSHosfh2Bao0A1BywG6eBP5dfUH6k6ywvHpcSz//AzpU/UhDgx8P5OEqX10Qzaj4bEV/Xrp741o68by9Ch8u+gelhcWUlDkTMB7E3UXIJrAJTiR1JluBs+n69m07xPEjq/eoV/1fFJbN5YfiiN0kP4c9O9ZyU0HHB+oOZwx2xGsS5mP7vfJScK8gtlZpGx076kOp5b8O7nW1Kp/xNtyKigpLKGc9tjad6R9YxOxjblZQUlRiS6U2triaF83ZFuF4XnRHluHjibvFyovKqTkZv31ZqsopaBE/+vDyhZH2wbeh5q2zfC8osXcg3/E25KssHVwwNGhGUIJoG318RwsJ5RQnFcDH/729g3Xm82qY+1QvKFQwrBtMzyv+M27R4JJCHE3kWASQlgcCSYhhMWRYBJCWBwJJiGExZFgEkJYHAkmIYTFkWASQlgcCSYhhMWRYBJCWBwJJiGExZFgEkJYHAkmIYTFkWASQlgcCSYhhMWRYBJCWBwJJiGExZFgEkJYHAkmIYTFkWASQlgcCSYhhMWRYBJCWBwJJiGExZFgEkJYHAkmIYTFkWASQlgcCSYhhMW5O4Pp+22EvRvNzpwKZQ0FadFEJSST/n3dunoV7iFiRighK/ZQoKyro5BDaScpMHn4k8SZfRwhRH1aPJhSp3Wl04N1t0FReVyMGlanvNODXek0NJqLBsco2L+ZqLWLiDthUKh3bOsiwqZNITytRFlVP00OiXGbidueQ7myTiE7KgDPV0fh8rArAVFHKLlpWFtIupnHEULUr8WDSccB3w/WEfevdcQFuykrGRisr/tXEAOVlcDF098AvRjY10pRc5JDewHc8PV2UNQ1D5cpcex4bwSONwvZuTSW9MJSCgoL9VuJLpAqrxuUFVJisnclhKjPfVVVVVXKwjspdVpX/BKgvYMDtm0BTSEFJeDy3kESeI3+C3PA1gFHa4ByCq6WwhPzObYviB5XT7Lzm2/YsWAeiZfcCP7XVAYBdHmG0c84wJll9HdfzcXnI8je8gw7gvx498pUMr8MogdwMWqY7vhN1ovwQ3sJfsSgqGgPO08/Q79vxzR6TN9NV1g3SlkqhOWrrKys+XnVqlVGdaa89dZbNT//979f8ac/jTSqN5dZPaYXx75Sd3il2N4IqT2hxjkw+q3FRLy/mIgAEz2mAH3d++ONe0wn1hLw13kkXgI4QtRfpxDw1ykEvLWNi8DFtBQuAqMDXsLRqhf9Hyqn/NtFhMQV6va37o5jFwejrX31sW2Ny4237li10TUr1+i7P/YjGP18R9r3fomAgPH6bQg9AKz6MLqmbDzuXaufRAhhDrOCKS/vsrKojv0HDiqLGlBC9sE9pO7dQ+rJH5WVFJzU1+09aTyJ3HcqcbNHAOD40mKDoV4eh3ZsIDwmB+hDp7xlhMwIJa7QmfZA+ox5JGqgR2Ac2ceyDLYkwp4AsGJKvGG5cotjijOQs5o/PtwTp+GhxJ0s1Z2Hx3QiV0bot6m683nkJcJryiII6GPwGoQQjTIrmD6OXEnXrvpf+4YDP4OfP45caVDRmAq+y0gjNS2N1O/KceziQA/r2h5N+Xf6urQTRpPedOlDP2td78fTbyKj+zpSAtD+GyJqelIniVscTVzcZuJ2nNRPQicTHmlquHWO7LMAzti2qZ0Tqm9+qOTmgwzsBeUnNxMy/I+EfVNBiVF703NMBYWllBtNkgshGmL2HNPS5StZ+uEK3YMq4L7autlvz2T2rBm1BQ3QzTH1IvzQLl64mMZ3uo5HXR178cKwS4Q8GEBi9RwTsDOoKwFbR7DuQhy+e4PpNHEb/d5fR5gVVDyg29W21zO4PAC0tcXRKhm/x/6B4/oEIv+kmBDXbMPv4WBSjUuNmJofKslcxpTPR5Iw6RsGDVxEtnG1CSbmqIS4C7TWHJPZwQTQb8Bg8i5dMipz7t6d40czjMoaUhtMG+G15wg7q2yh98R8ju3rRbhRMB1hVrcxrHN+h8yvp1Mypyee62HK57ksd6ugpEjfY1G62R7bLh1r55OqZc7D6cUNlGOFYxdbo6qSq4WU04uwr/cS2suoqlbhHiKWJnMRuJ61lZ0nK8DWDd8xjyuey5nRs6fjeWcuFApxx7RWMJk1lKtmNKQzKLs1zgTvu8Kx93rpexRXuL5pHOh7Kdf1PSQjOQdIrwByljHmr/NYt6MC8OYFN+DSBjyfcsXF1NZ/LunKYwHHv0ymHGg/ObGeuSdo31a5F0AFiX8dxqzvniF0ZQSRKxczpqtuzDdw9nrW6eeWln+wWD/PJKEkRFM0KZieH/IHAvxfrXk8++2ZPD/kD0ZtzJa7Ab/+rnguzQFyCH/RFZdp2wBInOaKS/8A1uUZ71Je8SD9elnh6NCRgh0bSCwERnngbhgeg4L090DVfx8UAJo9RK4tBKwI+JPyyuCPXPweoA89uiuqAL79iPAdOayb/k/dME6TTOIuAG+mjHcA8kj8qytO3cYQZWpqSwjRoCYFE8DsWTNw7t6d54c8Z/a8UnNp32c8677OJfvYJoLt9YW7FjFrl8FEVY/nGT3GW789X7fXBUApqW9PI7ECeOIdgp9XVN8s4HoFYGWLY50eUyFxC1frbksIexMXoGBzLKlA+8CJ+FoDOOM+rBdwkrA/L+O4THwL0SRNDiaA40cz+Hz7Z8ripuk5kYRjGYSPBBjHxmNZZK/RD+XWGFyiNyF77VyiigAHB2wpJG7CGCK+U7aqTwXZH/nil1AKdGRKhIkh45ED7AR4tk+duvJdi5i1H+g+nbAxUFJ4gMiPjwDg7ljCzh3J7NyRzKGbvXBpC1xaTcDSk4qjCCEackvB1FzKv1lG+BfQ3u8l4+GY5ghxUdvYGbuVQwbF3Cwldc5zDFp4EmzHkfB1Fsc3jcN93jpCH9e3SQgwuPEzgESD3csLDxD16mAGLdYFxcD3d7B8EFCRQ+pWXaDs3LGNWWEbKAcc3friaLA/mj3MmraNcqzw/eBNXK5uYPRTfkTprwekLtXf8PnXKQS8vYFsfU/p4j/msu6q4YGEEA1pvWAqzyHq3WgutvUmcskI46tY1t0hLZiAt3V3dNsOe0bXc6ks4Pj+PLAdQmRKFJ62YDsqih1vGlw2a9vR4I7tjgYHhfYlJ0lIKwScCdiQRepU/X5WvSCtOlSCWfct0HYIYZMUd0a27YPvZDfaP7+Y8FFW4NwH9y4O9BtVfZf3dJbr57cSvjxI9qks4gKsoO0ljn+jv/tcCNGoJt0u0BwKvk3mUJ4tj3sMwcWqkIuFDvTooq+sKKWgpJz2tg6Un0nmUF57ejz9DI87G1zqzznCIQc3Bhpf3QdNDulpOZQ4P8Pop6svgRVyfMc3XMSZgWP64AiUfLOH7J4jGFg9R6VXnnOAL8/ov5HAvhfuz/bCVvk3wnrlFdC+nro6ruZx8QFnepjbXggL0lq3C7R4MAkh7h6tFUytN5QTQoh6SDAJISyOBJMQwuJIMAkhLI4EkxDC4kgwCSEsjgSTEMLiSDAJISyOBJMQwuJIMAkhLI4EkxDC4kgwCSEsjgSTEMLitEow5SfNJzTJaCnLRmhRFxdTZPamQas8hBDirtEqX3uSFx/Ce7xDrP9lloxaRpq+3Hm4O3yVjuEaBB7ztzF3yBFW+0exr7qwUkNRKdjbWQM3UF/Toupsjapmr+cIjX+dQTWPhRC34h7+2hN3FuzaRuxr3aC7L5OGd2PS+m0sGF4dSgBuTI+PJbF6W+6Hc3c/VsTHkhgfzFCeI9SwXkJJiLtaywbT4U/w9Q9kZuJl8hLfxffjI0ABp75KJ/OCWtG4G06GS9gdWIXH6An4+gfiOyuBvEsJzPQPxNc/in0cJMI/EF//QHxGjyMw/rLBjkKIu03LBlN/f6Kj3sevJzi/OJvo1/oqWxixaqMoGBLcaI8pdIhiHyHEXadlg0lljb1dMT9cBHWJGpWNCnDkqeHuDHrYxqBhMUWmvru/TK2b3C5RQ6VaPyGuRo2mZnJcXabcSQhxt2n5ye/vNuD/ZhLqDtY4veTFQxs/q5nUdn68L0UXTqC17gSlGlR21vTyW0qEjyOcTyFie66+pZaLR9PJsx/MUKNA07Ef8hcmDbZTFgshmqi1Jr9bPJiyPgoh8Rr88Lg/I7W7yUq0xmfXWwwq06LqoL+udukzAsNhYfQrOANoNRRpDG4AyE9m5pxsxn70FkOVq6XoqaztsKm9TCeEuAX3RjCVpTP3jUt4jMxgU83tAgcZusuXvKAoVIuX4tsZzsVOJShjJLHVwXT4E3w/Oqg7RqWGomKwMbo9ALSl11G36YS9te7x0Ddjmf6sQQMhRJO1VjC16BxT3tZEfh7tjcHylHoODHW/wfaduaDeTUyyGqMB2rOv19wKMHeICpvhM4g3vD0gKhBXVTf8P6otk1AS4u7VosHk7LOIhT7Vcz9ais6c5wcOsmTsBN67YIfq8w3Mnf8JTJmouw/pajoxabWX/rWH17AgFchYSeDk2Sz4+DNSUuIJff0TtEFhTHq4pqkQ4i7WosGEjR32NbcAqLh47DqD5y8lMSGB2NlTGNvjLKccZjDXU99fqiwk63Rxze6qZ6eRlBBN7MfvM93djpzUeFZvzuCHG1qyYj5kbmwSWZfkj1GEuNu1bDApuL46Df8hPbFRacn6+D0SHnmX+NmDsaEdqqsJhMzYjpVLN9CeYG3QBLxGjcPrtWBmRmwnq81zzIv+NykbI4nfnkBS1Ot4qC4TM28CXm+nUKR8MiHEXaNlJ7+rlWlQY41NB4OySkB5Q6WhxuoNNaWtEKJe98Tkd40OilDCjCBprN5QU9oKISxO6wSTEEI0QIJJCGFxJJiEEBZHgkkIYXEkmIQQFkeCSQhhcSSYhBAWR4JJCGFxJJiEEBZHgkkIYXEkmIQQFkeCSQhhcSSYhBAWx0KDScPprZ8Q8XESp5XrYN4pxbmcK1AW3gGVWrTaApIWryFTlpoSwiTLDKZj8SSofAl9zZHtH6dzZ7+T8jLxc9aQqS1k08INnKv9+plGqY9+QsiHGRTVt09lNqtfm8CCrzS1Zec/JXDRCYa+2I61608YthZC6LX8F8UVHyEmJqPhb5gsOMGp3m+xwv0sEck9WRLSF8glaUUKOcq2dfRk7EwvHlMWA0VnTlDU3YXHbFSAlvwDGRT1d+exY6sIPDqSFU8eJM1xIv59Gl/3SX30E4LCdmMTuJJo327KagDUqeH4bOpGdOxEHqv+jqjKYlIWLaNo8rt4tQGbLsarvQhhSe6tL4prRH5+AXknkknJcGR6UPUy4oWcSj1IjkHnow5NLvtSz/KDslzv1Nb5LE6qXuL3Blkpq5gTewLVkNeJHO+Ck8frZoSShtPx8/EPO0ivNyPrDSXUu1ny0REoSCLIexweo/Sb9yQiDmsAa+wllIQwqeV7TI26THxQCBneMUTWrKgCkMGSUfH0WB+Jf3eDYkOXPiNw8iUm7XqLoco6clnrPx/t25uY3l9fdD4e/5DvmZAQhlfdBX3r0F5NZ/X8KFLUboSufAuvLvXESuVl4kNmkD5kJdH+xsFVlDQb3+RnatfME8KCSY+p2rUjZFxwwX1IMy/xfekomcVuuPYxKHvUm7GPH2FTYvXS46Zpr2YQEzYVn8lRpF29gUfIO/WHkjaX+DdnkOA8gxWKUILLpCRn8+QoDwklIRpgccF0bmcKp3s/h0dnZc3tKTr8DXkD+jLI6PvA7fAZ7Ub+5ylkKSawtepcsrZ+QkigH16To8nq8hei/7OSCfX11gDt1d0seG0mCfavEz1rADkfTcV3zmdk6Veg0h5IJOGaO35eytDNYEn1UK/RbRX7FHsL8VtjWcGk3k1MohoPXy/slXW3JZft27N58lm3OnM6qmE+eLGblAzj8vyta5i7qxBXv/dJ3B5L5BvuOCsXUFBQdXBkUNAKEheOxKmNCtc3FjK18/+Y6z+VJSlJRHyUjvNrExla5zh9mRobQ+IWM7bYibgqdxfiN8ZygqnyMvFvryFzwESmD1HGx206mkLSNTfGeip7KkCbvoz16kRaqvFtCc6vrSAlOoxJXi7Ym3s6dn3xGt6zNvxUjnjMjCQ+fAA5H20gjZFMqtNbQj8Rboe9nRlbFzvj5dOF+A2yjGBSZxPz5gxi8CFy9shm/uAVk7RpN3j54FGnp6LzmPsfsc9IJ+1O3PBYWUBmUjp5j7rj5fQ/Qv3nk3JV2UgIYah1g6mymHMpawgcP5tEfIj8cCJPNphKl9k0KxBf/3q2WQnkKfZQp39CzFk3pgZW33ZgwuPueHQ+QnJq7XLkzUF7NZ0lk6eyusiLyA/fIvSjaJa84cvQLsqWQghDrRRMGrI+no3P2EkERZ/lqRlrSYr0bySUALrhE7aS6Kh6tjBv46td2lySEo/gFDixkdsBejJocCfyzmU3cpe5lp/N+BMZ7aUM4heH4DM5lqKRi4j/SP/a2tgxaHjfZu4RCvHb03r3MalzybpkzVOPO6K6a1bOLeb0VyegrztP1nfVUJtL/Oz32f3AWKa/4YOrqSklIe4SrXUfU+sFkxDC4rVWMLXSUE4IIeonwSSEsDgSTEIIiyPBJISwOBJMQgiLI8EkhLA4EkxCCIsjwSSEsDgSTEIIiyPBJISwOBJMQgiLI8EkhLA4EkxCCIsjwSSEsDgSTEIIiyPBJISwOBJMQgiLI8EkhLA4EkxCCIsjwSSEsDgSTEIIi9NqwVSQtpqQGaFEpBUqqxqsq6E5QtS70SSeLFXWWI6bFRz6aAzuM/ZQrqwTQtSrxYOp4Ntkdu5IZkdCLHFxm1mXoHtsuNWp+9YgoDQ5pO9IZueqZYStXUTc52ns3JHM8avA99EMerArnQy2KbsMn72lVJD+riudnljE9V7OfBc3j4hvFU00pRQUFlJQVKF7fLOCksJCCgoLKdEXCXGvavF15VKndcUvQVnaCL84rq8Zofv5+2gGDVxEtq0DjtbAzRIKCivw3XSFdY7LcHlhNQPXZBHRM5YxXqvpt+kgY74/QA+/8fSz1x3iYmwAnp+CZ19Ho6dRKjiRxuPzsggfpqioPgdFsSGXwIk4xm6g/IMdBJyOpeTPSwge1LG2wRfBdJq4DZ6Yz7F9QfRgD1MeDCCRXoQf2kvwI4ZHE6J13DPryrkvySL7VBapf+8FQI/J60j/apfRFjdZt9C3y993kH0qi+wlQxRHgdHe3oA3cdvfwQXgZik7122ggCF4DnPA8YFOABxaH0rYu6GsyzLYWXOJgm/3EBe3ucEt9dtCCm619+I8keWJcUSOdyNgZZRxKAG0NX4ohKhlVjC9OPYVo+GRqe2NkNqkbEh7WwccHRxw1OUGF9dPwX34KKMtYH2errLTg7q2tlZGxwDg2Wdwb5PDsazrAJRfSiNhVyn93ltMgAPwyHgiP5iI+0POuM9cR9gfa3ftEagPvFNZZKdM1wUbvQhN0ZcZbBHK3hLAI0Fk/niF6w1smcG9cBk2Ahdr5c4KT3anh7JMiHucWcGUl3dZWVTH/gMHlUVmqekVGWzVvSml8q0BdNIPoXbOCCbx0gFmTVute/xuGu1HwfGFw/Rh2RvPORuI25yG4/9542jYQ7HuqAs8h9qeFUCnB/RlBpupTGxWbdsrS4S455kVTB9HrqRr1666B4YzUgY/fxy50qDCfNn/GIPLU65Gm+c/cpTNAGg/+B3WTe0DOBO8KYHID9aRru/x+G6KInLKfNztocfUBI6lL8azLfD0VAKeNjiIprR2wtkM5UWFlGiqH+1hyoNd6dHfFRcztx4PdWVQlL4HaOimskAIUc2sYHp+yB8I8H9V9+A+g0C6T/ef2W/P5Pkhf6hp3xRN6THRpQ+OFTlgNYIxj58kak4y+QY9nvZPjyd4ZEcurvWjv/s8UtuMYN3/F2Q0VLoYOwYXl561w9CaSewcwgbWHaI6ubjiGWscLCVXCykwcyupJ4Aufn9SWSSE0DMrmABmz5qBc/fuugf6QAJw7t6d2bNm1BY04GJU9TCrK/0X6npFDfWYshc+V9N+UFQeXN1MRGwF7f/izcA2VvSwPUnUnA1kA+WHNzBl3CheSzC4r6liD1MGuuI+YR7rvtX3ktp2xLGLQ+3mUDtWa+9gUG6w9aiZJxrBuh/qziddPzKffgD0IfxI3frMYN1kvqGS6yUAuPTSv6f1ydlM1C4LvldLiDvA7GBCOaQzKDNX+94vERAwnoCA8XhWd4oeGUFAwDhGDxuC+zBvfAPG4/uM/gqWvRu++va+vdtTcuYIF9sOYfmbQ8B5IglfToQzVrgHRBE2+yU8u1gxcOpidnydy/XLWaSvno7vs7aU2A/B72ldAPWYuoPsY1m12+f6q3r0Iuxzg3KDLSHQIFhMXU0ruk4BAH15vG4GmVDIsSO6e7N6ODewQ1EyU7xCCZswjURdjglxT2hSMBkN6W5hCOfoMZ3ID+cz2vobUnOAtiNYHr+CsNkesPcA6XvBc/bbhP9rPcHdgaIjpF/tRUBYBKEeDth6RJB5IQ73rfqe18B5pF/NIT0umEEP9WZKQg7pa+cx5g896dTNFffpqznusZFjq72xVZ5MM8r+73ZdMD3vRn9lpSnfbyNqP0Av3F1Nz66XfBPNmIFTdIH09PP0a+zqnhC/IU0KJgyGdM8Pec7sIVy1gl2hDOreG7+1OfDIENzt9zDrD664PBXMTgCSmfKUKy79/YhqP44pHg4UpC3C06Unfpt1PYz2VtUfZCv6jRnP6D76ntAw458DhjXQE2lOJclE6Ce33V/yoOFbNgFKSXxXP6/1zER869xImUdCyDB6eC0ivQR4Zj6ZnwfhYqqnJsRvVJODCeD40Qw+3/6ZsrhRjqPeJvh5BwbOjOPi13EsX7OOuH+tI+5fQQwEwI3gf+nLlvyd97dkcOxf43EPWM+68Q6KoznjFxZB+Mu6ABo42fjnyMluivb1cHDQT47nEOYfQMiMUONtwmrSlftUq8gh4pUpJFYAthMJq3OOdWVH+er/TKYjUxZMNBFkFRzP1M2x9Ri/juydQbiY7lQJ8ZvV4n+SAieJm7GBQ0ZleaTHHeAizrgHDFHccOjM6NnT8XQATm4mJOYI17O2svMk9BvzEj1yt7LzZAU9ho2n37Xan905QNzePNr38cbX1ZaBkyII6GN0YL1SUqcNws9w0tzIOBJ+jMLTqKyCgv0bCAlaRGohuknvr3cRXM/FxGrl+xfRf1w0BUC/9/aSbrhDRTIB3aboeo5texG8aQfhHoq7xYVoYa31JymtEEzVfxNmLoO/HdsVTKcJ25QNzOK76QrrRilLq1VQ8O0Bdvw3meOGX2jg0AfPwUN4YVgvlLdBlp/ZwGuvzCOVEURujyOgkVCqUXSEqE9LCAgeUXfe6+o2wrc6EzLVDVsZugkLcA8F029IRQXlbaxoLyEifqNaK5huaY5J6FlJKAlxJ0gwCSEsjgSTEMLiSDAJISyOBJMQwuJIMAkhLI4EkxDC4kgwCSEsjgSTEMLiSDAJISyOBJMQwuJIMAkhLI4EkxDC4kgwCSEsjgSTEMLi/PaCqewymV8dIa9MWVGX9sIR0r7KpkhZ0dLKLpP5VTqnrykrhLg3tXAwFZA0JxDfkHjO1X7/VC11Okv8AwlN0i2GdEuuZbB26Qb2mfEhzz+wgSVLkzmlrGhp1zJYu3QV23Urb7aAn1nzUR4PzcvD47/GXym8Jz6Ph+ZdYc1t/BMIcbtaOJhuoC66TtF3nxGTVrPudo2s2E9Iu3adn9Q3lFV3lwOr8Aj6DBMLg1uIKspLq8gvrWJPys98qq6tKVdXkV/6K+W/GrYXomW1cDDp2HS0JnNdPFmGvaZrKcSk2OBUd9kQKNOQf+YEp69q0JrqaZVpOHf0BOdKtMoaPS3q4lyyjuZSpK6vTf206mKKiotRGw4PK7Woiws4nXGCc8UaDI9adK2e7kaZhqKr2WSaex7mvO4z2eTX+7rN8OtNpm35iXJluREt1/OK2JrxE1k/6lv+Ws716xryr5fV7lvxC/nXNVyv/r1iqo0QZmiVYLIfPRHfDinEfF6sL9Gyb308ee4TmfCkcdv81GX4vjyBwIUree+NCXiNnUnihdp69YFV+L48gZAPVjInaAJes74wnjNSn2D15An4BL7PkhXv4+83gaCtlw1b1K/yMokz/PB6eRL+f5uB78shxF8CriYRNPrP+P5tNu9FriTEfwI+IUnkcZn4oHH4fpwNF+IJHDUOj1Gr2Afkb52Jx8uBBM1aSsSHs/F9ueHzMPt1z19KyOQJ+IbMxFf/XOa7j0c6wfVjGsLP31RW6qh/YvLsH7Bb/jMvx6sZsKiAh9b/xPX7y4lYfo2H3v2R8PO6pgcTfuShd6/Re9t1XcGxIuzevcZDGw26ZEKYoVWCiTZPMGGCG6c3bmBfGXBpBzFfdWPC5MHYGLa7lsLijzLoFRJDypZYErdvYsGQAtbOj+ccQOUJ1q5MR/XiUpISY0nckkDSnOdQGRwia/0ykpxeJ/E/sSTGx5L4Zj/OrU8k06BNfbI+ns3aS8+xYMs2UrbEkpIciX8XwNGLyO26ssT4WFI+9MLmu93su9QN/+htxL7WDR72J3bXNtJ2vcVQwMnrA1KSE3TnsCWBSB9rzu3KMD3ca+x1l6WzZHE6Nq9GkpIYS2JiAtGjrG9hEr8t4S+1oxNVLN78E98rqynn0/9Pzb809zFtcmeq/tGZ/zwJ+cd+4V8/dOLl/vcBVRz8XgOUsuecbq/87yr4HjhzUdfN83b9fZ1VZoRoSOsEE2DjOZFJndOJ2ZpL2vp4il70x7ezcZuiA//jdOVgvDzt9CXWDH1pJPYFGaRfAM4fIVPdDQ9vl5owUtnbG4TbCfbt0/DkgCegVDcc03bphnNlLucu1TSqxwn27dXgPNqXodVPD9AGaKNCpdIPzUq0YGv4nPXooEIFaEt0Q0Ib2/r3aPR1f3eWU5XdGDm8W80+9naGJ2m+Tq52rOkFFJQTvE95KVPDnu+ADm14pKyMrYfK+IH7gF85ehVc3VQ4AXtyyuB6OXuK4KVebaDgJgfLNHyd8yvQFv9nJJZE07RaMEE3/INGUhQ/kyWH3Zga2FfZALVaA6h0YVCtgw02XCb/CvBjMUWAlWG9EQ1qNZzb/C5BwTN02wf/Q935CR7romyrpNvX6Lmr6Yd4Hn5BBL0RhG9IvOmej6ELSYSMHYfP5BkETg4kKL7+YVyjr1utofkGRx34i297XO+H5J3FbK0wri37FSi7SWi8hpfjNQSf1q32ZdcBeNSKl62A8zfYc/YGe2jLyyPa4sRNvjhdzsHLgHM7RnQwPqYQjWnFYAIG/IXQl0bi8+ZEvEx0IJwedAS0YDjxW6ZGTTecugIP2mGPmp+Vv+hrOGDfGR6bsFI3hKrZpjHIVOAY0e2rLqs7sZy/dRVrC0YSuX2T7niR/ugWJ69PAYkfbiDfc6lu6BUfS7R/bW9HqdHX3dUBZ4r54UeD+tvx0AP8a8h9UHaDf+lWJ6/R4X7ASkXaP3pQFVm7RT0JYId/f6DiJosP3NSFUB9dWO3ZW8bXv8IIV2ucjA8pRKNaN5iwY+jkaUz3NP0hVQ11Z1CbDDbF5+quelUWk5a4myLHwbg/DDzqxtCO10nZmk6RVnelLO/YWYO5lp4MGmzN6f98Smb1PDugvVZs0ONQBEAN3b5Fuz4l5ao+nLQa1FrQag3DSkvR9wVGPRiVSgXXLvGDFv2xbxhfVdMWczG/bp+nuk2jr/vhP+L9qIaUyFWknCkg/8xuVm85ojhaU7TF9ZXfM61Oz8aWvz5zH1Ro8V+dz6cZ19iacY1PdxaQrJ/ffs5NRXt+Zc8FcOqhwokO/MEZ8i9UcoY2/OUZa+VBhWhUKwdTIzq4MzfcC23iTLxGjcPDexJLTvRk+iJ/HgNo05fpyyfinLEK39Hj8Bg9gfeyrY16L65vLGV612+Y++o4vHwn4DVqHD4zksgDnN1H8pgqgwXepq9mub6xlOmPnSci8M94jBqHx9hA1h4D51G+DNKmEDJ2Aj6jJzDzJPQw2M9puA9D26Uzd/Q4PEavIpNuePm5oU2arTuHl+eT1aZ77Q7dB+P9eDv2LR7HkgNmvG664fvhUiZ1zSUmfDZz1uXy1JAnao93K+63I3y0cvXOtjzn34n1j95H/vkK/PXDOf+vbvB99ZDvCSv+aqX78U+9OgHtee5R/f9W3VT8qVPNwYQw212yRLgWdbEG7f3W2NsaXnMzrL+BqqM1qvqGaGUaisq10M4aextTx2iAVkORRnf/Vc3xK7WoSzVgbYfZhyvTUFQONnbWRlcO69fY6zaQvgyPpSqWJL/FIGVdc6j4hfyyKri/DU4dZTL7XiFLhDdIhY2dXQMfTpXuw15fKAF0sMbezq7poQSgssZeefw2unNq0uE66I+jLK9Xfa+7mHOHs8nX39ipLTjB2i0Z2Axzx1XRstlY/Q6nTtYSSqJF3CXBJIxZ8/PRTwh6TTc09Qp8n8yu04ic6daE0BPCct0lQznRnO4LuVjzc1WkbnbsmQ9/4Mgl3aT+N28/hFt3FUFbfuKTA7pJ+uhXH+D1ITZ8ckBN0JafAHh9iA3Rrz7AkUtanvnwBwDcuqv45u2HoJ7nEXeX1hrKSTAJIerVWsEkQzkhhMWRYBJCWBwJJiGExZFgEkJYHAkmIYTFkWASQlgcCSYhhMWRYBJCWBwJJiGExZFgEkJYHAkmIYTFkWASQlic31wwFZ1JJ+3wZaMFKO8k7YUjpH2VfQtLJzUnLXmH08m80ByvupjTXzXXsYS4NS0cTAUkzQnENySec6a+Z1udzhL/QEKT6lnJ1gynklaxZH0G+cqKOyT/wAaWLE3mlLKiRRWyb/0q1h4oVFbcgmy2L22uY93tigidl8dD8y4RnGW4lvDPrPkoj4fm/cAeg1LRfFo4mG6gLrpO0XefEZOmUVaSFfsJadeu85O6eo3plpUXH4LH0gxlsbirZLBklH7F5NtWxQ+lVeSX/sqardfJ+rW2vLy0ivzSKln6/A5p4WDSseloTea6eLIMe03XUohJscHJ0aAM/XdrFxdwOuME5/RfJWuKVq1bSNIc2pICTh/NJr/E+Gg/FRkspaJUqUV9/gRZ5zXGK56YUqah6Go2mUdzKVKbOONKLeriYoqUr0eroej8CbLOF2NqNyNmnE99r7OaVq2vb/TJmnhuJmlRF+dy+kxB7f5lGvLPnOB0gYkDVtddref1VWpRX80m60yBcX1xMbqvrFOoeb/M///EyPUK/ppSqiw1dqOMMyevsTXrOvkV+iXXK34h/7rG4D2+SXmphvzrZbWhVqeNUC6L0SLsR0/Ea/caYj73JdLHDtCyb308ee7BTGUZCdUNryYRNHkDeR07YdMG1MXX4dGJREf64AzsWzqOBZWvMCk/iZjvbuD8WiSTDJ+o8jLxISHE8ArRK/x5THWZpLB3WX3yBvYd26EtvY5qWBjxM28QMWoZaQAsw+MrdEt8R7/CxaXjWJDnwmNXcymytkZbeh21tTsL1r/FUBNr4eVvnYn/+kvY21lDpYaiYngsaCXRL+mWqFIfWEPQ0t3kY419ey1FbjNImz0Y9dFPCHkvhXzrTtigoUjTnakfr8DXYDGVGuoMlkxeRprGGvuO7VBrwKYNtasBV9b3Ot1QXfqMwMm7UT1VQd4lsGmjP8fJK4n2Nb2MlvpkPDPnfEZe++pzs8ZjXhRzh1jr/g3yJ5L4kQ/2+vZZkRMIPe9L4kc+nFo6jgV5fXEtOktOG2sovY66vRs+gwtI2afGpr2GouIbPDY5sub585LmMzP6LFo7a1RaDUVt/siS2GkM6pDBklHL+MFjJOqv/4fa2hp18XW0jq8Qvd4f1ZYQAjfqFhI9PXkcMYDH/G3Mdd5N6Iw1nKITNirQltozIXoFvo0ueqrX8T4eUVeRlfozn/6xI38x8e9+/chVem+8QX51r+r+Uv762oOs71SK60cV5He04uhiJ1z5mdBFpaypuI95bzoT/igkx/3In46Bt58jXwxVHPge1So9Jto8wYQJbpzeuIF9ZcClHcR81Y0JkwcbL7Xt6EXk9m2kbNEtEpnyoRc23+1mn2E3/egJKgIjSfrPJiL1H37QfTgT35yhC6WP/HmsAxQlRbH6ynNE/ke3UGXSCh9UqZ+SdHUwc3dtY8FwYPg7pO3aRlr0K7XLQJX0ZGpCgm6f/yzFR5VOxPoTtc9lwMnrA1KSdW0TtyQQ6WPNuV0ZupV6r6UwZ/FubHxXkLJzE4mJCaTNGgyVJ1i7OIWH3ojRvdYtsYT2z2XtZtNrxWWtjyJN5VXzOlISZjDUYI2A+l9ndYsCfj9ipW7xzS0JJL7Zj3Pro0i8VnuMGpUniFn4GWqvpSQlxpKYmECsvz1pi1eRVgZDPUdic+YgaTX76pZWH+TtVRNUlHTDf2MCSfpzsS89Qt5ji0jarnv+BcPh3O7q9yiJ5R8XMvTDTSTFx5K4ZSm+qt3EfF4775jfxo0V/9G9xynhI7G5mkHmVXD2jyRtvT/OdGPS+m2k7drG3CGQl55E1oMTidUvNpq0cwW+yp55Q6ysiPK8H369ybQtP9UdvpVd468bb5DfUUXa4q5ULbbmL+2q+NcXpXz/aHv+2hEovcnR68BlLXsqAKpIPvszUErWJWQpdYXWCSbAxnMikzqnE7M1l7T18RS96I9vZ0WjNipUKv3QqEQLtvbGwQXQ+RlGDnDExsYam+oFGyvPs33ObNZW+uhCSQVQzL792dgMcMNJU0xRcTFFD3ajB7nkfG98yDps7Hmg+lv+VS6MHdkN9cnjppcF76BCBWhLdEMGG9vaMy468D9OVw5mgn/P2kUD2gAnD7JP7YJrH3TnVaylx8Pd4Pz3Jp4jl8zDGpxHevNkzTnZ8UDN05j3Ou3t7Gp/9hzJULI5dbq2vsbJg6SVdsPD26XmnJ1f8mJQ5RH2HQYGeOHjmE3yLv2S50fTSStzw2OowbIIhu9fBxtsAPvOdjXH69G99hdK0YGDnO7Yl0FdNbpzL7WjxyNw7nztyds4dcO+esWaBx1rA7AeTk6OcCGFmJRs3cKo1LP0ewN6e/2eeZ3g+jEN4ecVlWe1bP0VOjndz/XT19l6+lewAn6s5AydeLn/fUAle87eJP/sDc5YteUlZ8g6X0759XL2FAG9VLxUZ8HRe1erBRN0wz9oJEXxM1ly2I2pgX2VDXS9nhl+ePgFEfRGEL4h8SY+qCZczSDpmJZBvmP1oQSgQa0B9d4ogoJn6Ld4cjr3pVfD63vX1Qa4VEjtV+0buJBEyNhx+EyeQeDkQILi9R9YQK3WAKq6Hwq1BjW5bJpdfV4zeO8rNfa9HzGx9HghRdca+mDdwutsAyrg4qXac62h1qAGrAyfTx8uuvY9GTvWhbx0XY8nK/0gePrgcYsfMrVaA5r/EVFz7jOIOdcJ18dNDzPNofJ4m+iQR8iJno3vWD8CV2SQb2reqiH3dyLspXZ0oorFm9UcNazTD9+uny3n5XgNL8eX8WkpYHUfdoBrn3a0B7bmlPJ1TiU4q5jW4z44f4M952+yBxjx5O+Q/lKtVgwmYMBfCH1pJD5vTsSrTlcI8reuYm3BSCK364YkiZH+Jj6oJnR/hQVvPMGp5TNZfbT66p8D9g+CjccM3bFqtkWm53EaoC1Tw6M96aWsoIDEDzeQ77lUN0yKjyXav/YD5fSgoy44lJOvD9phT08mRRmeVyyJb7opGqJ7HZ1BXVbfROktvM4yNWqg16MmPvwP2mEPVBh+kPXtq3s69l7eDLq0m93fnSBtH3gMN/FLxkxODzpCh5HMNTr3WCIMh+lNpuIxr3eI3b6NlOhAHvp6GYs/b+BCRz3au9qxphdQcINPfzSo0H+K2rv9nqrIHrVbxEM8B/Bke/5qBeUXf2HNeV0IjejTjva/3mTN3kqQpdTraN1gwo6hk6cx3dP0/3RareGHT0vR9wXoFhNqjBU9fBYR6W9NUth81p7U9VQGPeuCOiWexKsGxy0rpkgfFKr7gfwC3W9ToyuGZ8nSL22kvZpCTMp1nIe44VTTQKtvf8P4CpG2mIv5tWesGuDGk22OsD3+BEX6dlq1Fh51Y2jHbBL+vyM15aCl6FrdWyqgJ4MGW1O0K4m0a/pzunSCUzVzPI2/ToCcYyd0w5rKYrJik8i0cWdo/9r6mtf/uDtejpdJ2pKhPzct57YkkdnGjaHP6tt0GIzHswWkfbSBfdZeeBsep4lUA9x4siyFmMSC2iuWlVqKiusLYoU27VBRzMUr+vaVoFXXXv1UdemJ0y13TTrwlwkdGKH81PTvwLQOUJ6l5k+f/cjWjGtszfiRFV/8pL+fzg7//kBBJXsq7uO5R6zhkbaMoIrkC7+CsyylrqR8iy2K8yhfBmlTCBk7AZ/RE5h5EpqyOpmz/wdEvwqJb88n5rwWe593iXhRQ0zgn/EYOwEv73F4jF9Dpn42c9DoV3A+vwF/73F4hCTV3qTZvpjd8ybgMWocXoGfkPP46yx8VRemzu4jeUyVwQLvVeyjG15+bmiTZuPlOwGvl+eT1cagm9LZiw/CvdAmzcfXexweo8bhMz+N/DZ9mb78dR7KCMfX2w8fXz88Rk0gZLuJoRXg+sZSpnY/yBL/P+uOEZ6LjcHTNPY6ATgTj//YcXh4TyI0BXzmvc7QDgAD8PDsRF58CIHxuqHapEWv0+vbZfpz/jNBW8En/C2D4ZoKD5+RqM/n4jzWm8cMnqbJ9O+ReuNUvLz98Bk7Do/RE4g4bCqkTejijt+QdqS9p3tvlhyGc/HBuoVBXw3Ea/RsUuwnMuvF2jm2JrG3J2LIfcZl99sRNb0D3h2qSP7fL/rh3C+Enq6k+nfBc64q3VDt/rb84VGgQ3tG6Cfgn+v7O4NfcoK7Yl25Si3qUg1YN3E57oZoNRRptHC/tYnlt43tWzqOBd/rbh1wUhejbWNXO8lenzINReXoli1X1ulpS4pRt7Gus2S5tqQY9a+gMuP1ahs7H1Ov89JnBE6Op9f8bcwdrEVdegNVA+dpSHdu+uXYlZXn4/F/4wR+W5bic4ufeWNa1MUatKiw6djI8u/mqH4v2tV9z5vPTcpLK7j+K7TvYEUnq1a5G6dZybpy9Wmjwsau8Q9pk6issbezazSUlFQ2DYSAoQ7W2Jv68BpQ2dqZ/ICobO2wN/P1Nno+jb3ONvWETD1056ZoX6kbDqZtSSF/sDdezRJKALp/d3u7ZgglDN4Lc97YW9aW9h2tcepk/ZsIpdZk+cHUylQdO2Fvb/6H1+K1seaBzrobDZtD/taZeHhPYskJNxbMcv/tvE+iVVn+UE6IVnJfSO0NIVWRutnNZz78gSP6CyHfvP0Qbt1VBG35iU8O6C5yRL/6AK8PseGTA2qCtvwEwOtDbIh+9QGOXNLyzIe6P5hx667im7cfgnqex1K01lBOgkkIUa/WCiYZygkhLI4EkxDC4kgwCSEsjgSTEMLiSDAJISyOBJMQwuJIMAkhLI4EkxDC4kgwCSEsjgSTEMLiSDAJISyOBJMQwuJIMAkhLE4Lf7tAAUlzZrOpeqmTDo481bsvQ8f74tHlLvwmn8Of4PvRwZqH9o88w1O93fDzHYzTXfhyhFC6R75d4Abqouvw5FimTg5kqv9Iemn2sSRwEquPKdu2tsvEB41jyQFluQGthqJrjnhMDmTq5ED8BrQjZ+cy/N9MMm+ZKXMcWIVH0GfNdzwh7gItHEw6Ng+74THcHY/hI/Gf/wFTe2tI+jxD2Uz33dkG67lrSwo4fTSb/JL6V8zQlhRw+kxu7RJJWg1F50+Qdb52pQwjZRrOHT3BuTrHLOYnUyvT1uHIU8Pdda/npdeJXOSD/flEthsGbZmG/DMnOH1VY7yKihmKrtWuQKvU6PtRWf292ei+Q/tqNllnCozeUyEsUQsP5S4THxTCbvdIYg3WW9u3dBwL8iYS/7EP2vgQAtP7MunRg8SkXdct2T3rEVIWzyYiQ4O9nW69eh6dSPRHPji3Qbeixy47BqnOkqW2xqb8OkXanni8aE1Wai5Yg/qaBpVHGIlvu6EigyWjlnHxqZ7k5RZhY30D9TUNNh7vEPv2YGwOrMJjUbrRmTu/ZnzOoO/NLIIFu96iZsn56i/7X7iNuYMhP3UZIR9loO7YSXdelT2ZGrkC34cB/XkwX7eUtfExfckLCiHmQs2zAe6656q8TFLYu6w+eQP7ju3Qll5HNSyM+JluqC59RuDk/+H6Wk/2xadTVOnOgu0jyXpjPknFnbC3BjQaXGcnMHew4bGFqOseGcqZUJxO2mFwerZv7RI2F45y8dl3SfzPJpKCB1D0+SoiMh4lNF6/Xn3COwzN38Ccjbm1xymAQcsTSNkSS+LmaQyqzCWr0pf4/2wiMX4T0a91Q52WTmbtHhQ9MpGk7bEkxm8iaYUXqrQo1h4FhrxF2q538AA85m8jbde2uqFkiraYtPjt5HV0x6M/cC2FxR9l0CskRnde2zexYEgBa+fHc065bx3d8I/eRuxr3eBhf2J3bSNNH4BFSVGsvvIckf/RLQSatMIHVeqnJF2t3vcymZfc+CB+E0n/eZ1BR3eTVOzOkv/oF5DcnsDc6jXhhLBArRJMeYnv4usfiO+rfni8uorMLq+w8NWeBi1cGDq8J/Y21tjYaNj3v2wYMrJ2BQ6bwfiN6kT+gYMGcy922FfX65ewtrG3q1lhw/lhw+Pr2Njb1Xx5vqqPNx7dNZw6aXott/qls2CUbo04j9GTiDjXl9DlbzGoAxQd+B+nKwfj5Vl9YtYMfWkk9gUZpBv1hJqimH37s7EZ4IaTppii4mKKHuxGD3LJ+b621VND3XnMzhobG2tUTg44lR0hcWMGedVD3OZYeUSIO6RVgsn5xdlER60k+p/RJCb8m5RIfx6rdxkiDWpN3Q+SqoMNXCqk9mvcb59VG8i72tRgcmfBrm2k7Ypk6qOgeuSPDH1YV6NW61YANjr3DjbYcJn8KwZlTaJ7P9R7owgKnqHf4snp3Jde9a2f/qg/kQu9qPhqJYFj/fAP+4zT5i1pLESraJVg0q27pls/rd41z2o4YP+gYsluQFumhu4OTVqZt2FaflbDY48+oqwwUzd8334F+/QoVmfoJpedHnSkdvlwvTI1arrh1NWgrEl074eNxwzdsKxmW4SvwWq8SvaD/YncmEBK/LsM+jGeObEnlE2EsBitE0xNosJjuBscSCTmvP5qUnE6m1Ku4zTkOerrJJij6MwJ/dBGS/7nn5JyrRvug/XrNtMO2sAPV/VXxcy5mvawP9NfhLQVG8iqBNVQdwa1yWBTfK7uylhlMWmJuylyHIz7w9Q8x6kz+rkybTFZxwzmzQCVSgXXLvGDtvocVAx61gV1SjyJVw2urpUVU1Q9TFMqq70aqOrck172ygZCWJa7IJhA5fEWES9qSXxDtx69x6urOPX463zwWt15o6ZQFf2POX7j8Bj1Z/w/Pk+vN97Bv6bX4cbYV7txbv1UPEaNI2hr/ZftDblOfgsPUoiIzYUO7swN90KbOBOvUeP0C0P2ZPoifx4DwA2vFzuRnzhT97r85pOm6oZhbjgN92Fou3Tmjh6Hx+hVZAL2Pu8S8aKGmMA/4zF2Al7e4/AYv4bMcoMdDRTtW4aP9zi8fAPxGT2BiO/dCQ3sq2wmhMVo4dsFbpN+/XlV+0aWxm6U7jJ9zmuRxPo7oC6+gapjMy1FbZL+fqL7rU0OXbXqYtQ3mrZcN9S+H9RzXCOVWtSl9Z+DEKbcu7cLNIV+/fnbCyUlfSDcsVBC/xz1z6epbOywb2ooUft+1HdcI20aPgchLMndFUzNph02nTvxgE07ZYUQwgLco8HkxvT4WCJ8qie6hRCW5B4NJiGEJZNgEkJYHAkmIYTFkWASQlgcCSYhhMWRYBJCWBwJJiGExZFgEkJYHAkmIYTFkWASQlgcCSYhhMWRYBJCWBwJJiGExZFgEkJYHAkmIYTFkWASQlgcCSYhhMWRYBJCWBwJJiGExbHsYLqaTPiMUMLWH6HkprLSwt0Eru4hbFwwcVeVlUKIhlhuMN08wiz397nYdwRO+yfgHpFjVF1eVEhBYSEFJRVG5c3m6jYCXl1NdmOHz1zEmAnLWLc/h/Lq8Ly6Gb+HezPlG1s6XdvGrIXJlBjuc7OCkkL9+TewlWgMd6rPScKf6kqnB7syJq5QWVm/2wz6kpN72LkjmZ17c6izzmZFHjvfDSbqW2WFEOZp+WD6/gCJO5J1/1M3tG2IZYeVF1MCvAn29eDipUsGB6lg53RXXJ5yxT3SOLCaxdVtBLgHszNtGYPGbuCisr5GKYmR0aTvWs2shXsoaKsv7jKe0ABInLGVgR8EMbBtCfmGAXdpA55P6c6/oc0zNs9gp/p0pJN+6V5HBwdlpUnZcX649A9g3ZnGUrd+1/cuIuCvUwj4xzc1oVuel0zYiwFE5VZwMWMbYZOWcfw2A1Dcm1p+Jd5dwXSasE1ZWj+rjrSvdCYsfRfBvWqLU6d1xS8BXN47SGaws+Eet6Xkm2X4jl7NoZtAWzfC9yQS3NtK2QyA8rRQXF7dTAngPjOKKU/Wtsvfv4FDrouJ9O1F++rAqpa3Ab/R/+CYolip/5tJJAQavrYKsvem8V2pQRGF7Jgzj8RCGBi8jhDX2ppyHPH0dsPW8PmvbmaMWyjpNwEcGB29i7iXzAs0QxejhtF/YQ74xXF9zQhd4c0cIoYPI7z9fDKXX8fvhWjcN50hcpTp909YvtZaidesYHpx7CvsP3BQWWzkL6/68XFk4yfO3kW4/L2xYCqn4Kru0+cyexepwX2wVfy/3ezBdLOUQxET8FxxRPfYYTxx+yIYre+N1FGyhyluASQajdGUehGWvpfQ3sryW5VH1NDnCDurLG/AoMVkfz4RoxX0ivYw6/8CWPe97mG/v+9gZ5gbtoZtADR7SMwYgq9H3WAxGUxA+a5gXP6aw6wvdzG5J7Svu6u4i1h0MPUbMJg8o6FUXc7du3P8aIay+NYUbmbMU6GkY8WUz3NZPkjZoDmDqYKLaR8xa/pqUvVTND3GryN1pTeOyp5OtZs5RHkNI+xb4OmJrAsZQnuD6uxPpxCeBjhMJ/3UO/QzqCvPOcCXZxpMM70Kyq3dGO3hbHDs2mDqMWw87t2NdjBQwrGEZI5XQPvJO8j/wE3ZAG7mEDd+DCF7S8HWm7hD6+qE8KE5vfHcNZH0Q+/QT/Fe1ATTmHXk/8u79hxvAvW9b+KuY9HBtP/A1wRNe5MrV65AFXCfvsLg58+3J/L8kD8Y7nbLCuL8cJlxAKwmsuPCYtxN/I9udjCVlFJu29EoOACoKOT41rWEhkdzyHDO+In5HNsXRA+DIiMlRwh/ZQwR3wK240g4EoWnUVcjh/ABw4i4BD1m7uXYbIPxp+EH2kztx8dxYfUI/fnXBpPvpiusG6VsXW0PIQ8GEAd4RueS8FI93ZabpexcuIjyv0Xg28W4qmRXMP0mbKOEjgSnnCH8GeN6o9fR1gH38VMJ/ttEPHvV81zirtRawWTW5PfzQ/5AgP+rugf36QOp+mdg9tszmy2UoJAdnx4AoP1fvE2GktlK9jDFbRDvZuof3yzl+I5oQsY9h1M3V9yn60OpbS8G9mn8A1WSGc0Yt+pQ8mZdujKUoHzXP4i6BOBG8GvGoQTQvvdLBASMb3gb71Yz9Br9p+pQaoJvD5MKwBBGP9/A62rbkdHv1w0lcqIZPWEbJUD7l1YwSxFKddwsJD1uEX5/6EmnbqOYErWHbLOuKAphmlnBBDB71gycu+vHDtU9Jv0QbvasGbUFt6nki0W8+w2AM8GBQ5TVZis/s4ExbgEklpSybpXuQ0bbcjL/uYi4/Xm6S9xdhhC8ehcXL+1l3csN9Lr0rDrqP+SPTCTh0Lq6H+ibJ4mYs41yoL3fmwQo6wFHj+lEroxocAsfZksBgNVEAjyUR2hc+qfRuv2f8cazifPa5Wei8XRfxHF0PcKNH3rXnXsyNGYx6auDcH9E/95UnCRxYQCDHu7JrP3KxkKYx+xgAvg4ciVdu3atU9Zsrm5mSlD1B3vxLU4aV5C9PoD+7vNIL9GFyI7ocfoPlwNTFryD59TF7Pg6l+vHEggf38f4qlUD2veeyI5TueR/vRjPOpPipaT+3ZeISwBDWD7vFno66Hp5oW/vAcBldpCix+hM8L4rXP+xgWFcTjRhsbrbAEZPGW886d2Igq1T6O++SHdFsp4eYR3tnek3fj47DuWSfyiOcL8+utdtNZ7Rg5WNhTBPk4LJaEjX3EO4q9sIcA8ltUL/m3pJ0z/YJSc3E/KHngyas4cCwHbYYjL3Lcbd8MM1aDoJ70/E/VbnQqys6l7+p4Lsj3zxSygFOuK7ab3J3lKjKnKIeEV/pa/7dNZNbbwXZ6RkD1O89L2dp+cTXt/ckkJ54QGiXnXFJShZ19NyGE+cqR5hI9o/MoLgNbvIv3yQhC3KUBXCfE0KJgyGdM8Pea55hnA3K8jePAWX/sHsLAHoQ3iKGb+pq1WUkp0WzZThPekxPJS4HAAHPD/YS3biRFzM+2zeupuF7Jw+jEGLTwLQ770drBvVUdmqUeUnN+A3YBjh3+rvn/p33SthDdHNf1XfvtCH8I8bmMBH974XfLuZsHGuOD3lR1ia7gqAo8diMo82cJuEOayc8Xy+iaEqhIEmBxPA8aMZfL79M2Vxk5RfPcnOqGDcH+7JoOnVv6lHEPm18Y2UjcleOopBry4i8aRu+OISEEF6dhYJk3s1ucfVNBVcTFuGX39XAjbr7tAeOHMHO5ty8hWlZO/fQNiLrjgNn6e7XcHWm3VHdpj1HpSX5HF8hz6UX1ykG7q2dSM8vb79KzgeOw+/F1xxeqgnLi+EErVff0nSYQThn58he0sLhLkQjbilYLptN0v5crEvAQu3cVz/VxEuAes4djSOAJMfKKUKaGPQK7Fyxn3qOjIvXCFz5Xj63c5v+8ZocnSB2q0n/V/V3/vUthfBW86QOtvETYr1qcgh4sXeDBo3j6hMXTi4BKzj2Ckzh1A3S/ly7ijc/1obyo4e80k9taPeO9XBin7PO5P/bWHN37e1f8Sb0C17yT8WR/Cgpvf0uFqg+6UiRDNqnWBq25HR/8gkLqAP7lMjSD+VS+ZKb3rU93mqwwrP1ZmkfjCfyC+zyL98kB3ve+NirWxnvpIKKxy7OODYtZGTsO7FwC4VXKxA90EPWMexC3sJ92jih9qqF6GfxRHwiPOtvQdtOzL6HzsIH+SMe8B8Er7OJXtLEAMbC+VeQaxbM53wNQlknssl/9A6wjxM/NlMI0qu628SvVZa9494hbhNZt1gKeoqOXOS6z37mB8kQtyFLPoGS1GXbW8JJSHuFAkmIYTFkWASQlgcCSYhhMWRYBJCWBwJJiGExZFgEkJYHAkmIYTFkWASQlgcCSYhhMWRYBJCWBwJJiGExZFgEkJYHAkmIYTFkWASQlgciwsm7YUjpH2VTZGy4o7RkrVlDREpucoKIUQraZ0viqssJivpU2KSvyG/DMCeXiP/QmigG+r4EAI39mTBrrcYqtzvTihOIeTVeHp8sInQAQblhz/B96ODBgXGhr4Zy/RnlaVC/LbcO18UV3aC1ZMnERp7lt8PGcvUyYFMnfAcTloNWmXbW3FgFR5Bn6FbHqBxRV/9j9M2z+HRX1HxyB915zY5kKkvPwHX4KmX9Y8nBzLyEUX7pmjiOQpxr2nxYMpav4yk0sEs2BzJkkAfPIa74+H1CtOD3HFStNWqizl39ATn1IrIqtSiLi7gdMYJzhUbB1rRtaZ8NX4u27dn4/SiF65tFFWdXXTnNtwdj2cfxQYbej2rfzzcnSc769uVacg/c4LTVzVoa3+5NKhp5yjEvaeFg+kE+/ZqsPfyZaiNss5QLklzAvEJnMGcD94n6OUJzE3T6KquJhE0+s/4/m0270WuJMR/Aj4hSeRxmfigcfh+nA0X4gkcNQ6PUavYpzy0ofMHSStwxMO9p7LGLHlJ8/F9OZCg8JW89/dAvPzXkFkGRemr8PGeSfwFXTt1ajgeLy8jrfgWzlGIe1DLBlNZAflqcHrQTlmjYI1rSDQpibEkJkYztfcNMg+f0FU5ehG5fRspW2JJjI8l5UMvbL7bzb5L3fCP3kbsa93gYX9id20jrZF5qqydKeT39mLso8oaM1xLYvnHhQz9cBNJ8bEkblmKr2o3MZ8XYO/+OqHuBcR8mESeOoOI6LN4zAjGw67p5yjEvahlg6lYw0/AA3aNBZMjzl1U+p/tcDIc47VRoVLphlBFJVqwtafBzld9Kk+Qtk/Dk8PdaWzFI1OKDhzkdMe+DOqqoai4mKJSO3o8AufOfw9YMzQ4GI8fNxASGEXWs8FMH3Iba0sJcY9p2WDq4kgP4OKFy8oa81VeJnGGHx5+QQS9EYRvSPwtTSJr9yaRUubGWM/GQtI0tVoDmv8RETyDIP0Wc64Tro930zWwGczY4Z1Ql8JQz8G3Fp5C3KNaNphw4amnIO9Axi2FCUD+1lWsLRhJ5PZNJMbHkhjpj7OyUaO0pH11BNxH4tFBWWcepwcdocNI5sbrhpTVW8RL+mC68Bn/SLHHY7gdKR98QpaZE+NCiBYPJjt8/p8XNhfimTnnM7L0V7K0JcXkn8k166ZKrdbwGpyWou8LUBuUqFQquHaJH7RAfWFwLYXkw9Z4eQ5W1phNNcCNJ8tSiEksqL0qWKmlqFgLlZeJ+SAere9bzJ31Fr4dUliw4khNO7POUYh7WAsHE9D/deJX+NPrSgKhgRPw8h6Hl98k/OekkKNsa4LzKF8GaVMIGTsBn9ETmHkSehjUOw33YWi7dOaOHofH6FVkGtRVy9u1m9OdRzLW8IbKpursxQfhXqg3TsXL2w+fsePwGD2BiMMazsWGE1/mwzz/btCmJ1PDfLBJW0XEAd2VRXPOUYh7Wevc+V2tTENRuRbaWWNvUz3ZbYZKLepSDVjb0ZTddHKJeW0macNXEB94a7cJGNOiLtagRYVNR2tUyvuhhLiL3Tt3fhvqYI29nV3TQgndlTkbu1sJJeBoCkkFLowd3RyhBKA7F3s7CSUhmkvrBlNrGDCNpF1L8a2+c1sIYXHuvWASQlg8CSYhhMWRYBJCWBwJJiGExZFgEkJYHAkmIYTFkWASQlgcCSYhhMWRYBJCWBwJJiGExZFgEkJYHAkmIYTFkWASQlgcCSYhhMWRYDJX2QniV6wh5byyoplcyybtq2yzvl5YiN+6Fg6mApLmBOL78RFlhcUrSo0n5mtweti4XJ22DF//ZaQUG5cDFKUuw9d/Dfu0kLnCDw/fTzitbFQtO5klS5M5pSwX4h7UwsF0A3XRdYpKbygrLFwxaV9lYzPUvc5S4jYD+uF0LYPkdGUyFbPvvxkUPdaXQSroNdgHr7HP3cKKLkLce1o4mBqg1VB0PpvTVzU1q4loSwo4fTSb/DJF2zINRVezyTyaS5HacNUUHa26gNNnTNdB9XOdIOt8MfU1MXI+me1nHPEZ3VdZA3YejB0Mp79KNx6GFWew+xR4eLqjAuyH+BPq39dofTmtWv/66juJRs6z5v0pMVEpxF2shRcjuEx8UAgxj7xD2uzBQAZLRi3j4oC+FJ3JBWtQX9OgGuzF0Cu7SVNbY1N+nSJtT6ZGr8C3O+RvnYn/+kvY21lDpYaiYngsaCXR+vXc8hJnErQ+F+w6YVOuwb67I+e0fyQ2+hWcAfXRTwh5L4V8607YoKFI052pH+uOXZ9zsVMJ+moo0Rv9eUxZCWjTwvH6UM3U+Nqv7C1Kmo3vxu5EJEzDtQ3kxYcQmF57HkbnWamBNiqKit1YoF8yvMHzrCwgZfFsIjI02NtZoy6+Do9OJPojH5zle8dFM7o3FyPQK+riS/z2TSTGbyLStxPqjMv0WrqJlC2xJP7nHTzIJTldt3qvk9cHpCQn6BaY3JJApI8153bpF9A8H8+c9QUMmqffd/smpj5usOpc5QnWLk7hoTdidPVbYgntn8vazQ3MeVWeYPvnBTw51ttkKAGohvngZZNNes1wrph9/8vGZljdoR8A15JYvj4X1zf155GYQPQEg8URGjnPos9XEZHxKKHxuvchJeEdhuZvYM7G3NpjCHEXs4hgsrG3o3rBE1UHG8AO+876kjbd6GHYm+mgQoVukUx1GdjY1g6Oik6eIB83PNyt9SUqHrA3GDydPMg+tQuufaCouJiiYi09Hu4G57+vf2XgY+nsU7swcngDS4m36YvHUGtOp+uHc8UZ7D7VCa9RJoZ+gPboCU4zGC+D5cnt7QyO3+B56kKPISPxqt7FZjB+ozqRf+Bg/a9DiLuIRQRTk1xIImTsOHwmzyBwciBB8bqeFIBarVtQsl5qDWpy2TR7BkHBuu29r9TY936knklpLWlJu1EP9q4NgXq4eo/E/sxB0q5B0Vf/47TjSEY+rmylk/9jAaACU70pGjtPDWoNdfZVdbCBS4VcNC4W4q50lwVTAYkfbiDfcykpibEkxscS7a+bWwJw7t4NKCD/mtFOtR60w56eTIrS7VuzvemmbKlTlk5aRu0EdoMed8fLMZv09GzS0rNxHvXHeod+Tg86AhrUykn9ag2epwP2D9ZdWlxbpobuDkarEgtxt7rLgukGWsMPpLaYi/kGc0jPjsSjYzabPoxn3/lizh34jJjdtT0qHnVjaMdsEv6/IxTVHEdL0TXTPa2ilN1k2ozEa7CyxpSeuA935PTm99l0xgXvUbWBqaQa4MaTbY6wPTFX93q0xWQdM5gfavA8VXgMd4MDicSc11+NK05nU8p1nIbI7Qjit+EuC6ZuePm5oU2ajZfvBLxenk9WG4MJqA5uzI16h6Flu1k9fwbL97bDdYBBQLTpy/Tlr/NQRji+3n74+PrhMWoCIdsNwqvGZVJ2ZWPv5WV6AtuEx0Z78WSpBvVTf8SjoQU1O3vxwbyRqBNn4uU9Do+X55CodsS+ur6R81R5vEXEi1oS3/gzHqPG4fHqKk49/jofvNZcqwsL0bpa+HaBZlKmoagcbOysGx1i5W0MITBjJPEf++BkUK4tKUb9K6is61lq/Hw8/m/sw+PjtUx6VFnZTCq1qEtvoGrgdTR4nloNRRotqvZ22HRQ1AnRDO7p2wWarIM19iY/zJfJOpBLUYkW0KI+v5u1Oy/z2HA3o1ACUNnaYW9n4sOul7UzhfzeXoy9U6EE0EbVaLg2eJ4qa12dhJL4jbk7g6kB+Skf4j/+z3iM+jM+b37Gz96LWOFb/3xPfVzf3ETaRz61wyshRIu5O4dyQogWIUM5IYTQk2ASQlgcCSYhhMWRYBJCWBwJJiGExZFgEkJYHAkmIYTFkWASQlgcCSYhhMWRYBJCWBwJJiGExZFgEkJYHAkmIYTFkWASQlgcCSYhhMWRYBJCWBwJJiGExZFgEkJYHAkmIYTFkWASQlgcywqm/Yvo398Vl+GrOa6suwOyPxqG01PDGPN2MheVlS0hL5mwGaGEzFhNaqGysgEVpRQUFlJQWEr5TWVlC8lJJi6zVFnaMlrrNYsWY1nB1NWR9lcLKbhpha2yrtlVcPybHMoLczjUxpEeyuqG7F3GmKBQQmbUv/m9MIqwtEY+uJWX+DJuM3FxhymxVlY24Mw/cX/KFZenprGzQlnZAm7mEPXGFEJe7I3Lq9EcKlI2uINu5hA33hWXVzeQ3RqvXbSIlg+mmxWUN+V/qJsVlGiUhc3g6mbW7QJwJvg1N2WtgQpKShQnXHGJ9K2biYurf0v99iRRQcs4ZNZvd1tsmxJMtp3opPuhafs1G0cG+ozAEShIW4SniysBW5vS5bt1BZvnEbK3kIK0eQwaMIXEq8oW4rfArGB6cewrdHqwa4PbGyG160k16NIG/tit7v6dHuxKp4GLyAY4u4j+1WUP9cQzNk95lNt2PCaaQwDkEeFu4lxqtp70mHvAeOeuHoSvWUfcv0xsq8fjom82cPbfGdjWeNffhLYdGRgcR3Z2HMG9ANshBHg4KFvdkSGXY0ACF7dM1PVwC5OZ0n8U4d+Y7pmWp20j9U78UhN3nFnBlJd3WVlUx/4DB5VFlisnmuB/3EbY9RlHsJ83o8fU3QZqvtOFq9VEwiaa+LCalMd3Z0opVxZbmps5RHgNI2RHnu5c7UcQ/nUu2V8vwbPO2LuUxL+HmgyG1GnK8DexTduj3K2Grcdijn0dgbstwEnW/XM/JcpGN4/wblAws1adVNaIu4BZK/HuP/A1QdPe5MqVK1AF3KevMPj58+2JPD/kD4a7NUl21CgGLaz+n2gcCT9G4aloA1Cec4Avz9T537BBtr09cO9lpXtw8yThA0cRcQl4PoLsbeNx1Lc7Hu6K+z8KwS+O62tGGB7CPCXJTHlqCokV4L4yix0BjQTT99EMqu4lArR1wH38VIL/NhHP6vM1pWa/+t8nnVJKSjpiWxMahRzf8U0TJ/qdGTimj27Ytn4MLnOO6Ip7jScufjGjHzF9ngVxfrjMOECPv+/iWFgfo7r0d12ZssOoqJamkIISzPs3KEomLLyCkA/H4WjUMy0lddog/BJKwTaI1HPzGWhYLczWWivxmhVMAEuXr2Tphyt0DwzDCZj99kxmz5pRW9BEJV8E02/iNoPfevV/4C5GDaP/whxlcYNc3jtIZrCzbtLWaxhh3wIMIfJYAgFdqltVkDihJ1N2gcu8vWS+2cvoGI0rZWfQ0wRsrYCn55OZEoRLY8M4ZTAZ6jKE4NnzCXmpD47Kz76ZwZQdNYpBaRMNwncPUx4MIFHZsEGGz1HBxR3z8AvaTPZNwHY8O05F4K44v5JdoQycsJkCwHbyDi5+0NAcnsKuYDpN2GZeMNWj9pecFb4bvmXdnzoqmwgztVYwmTWUA5g9awbO3bvrHhiEknP37rcRShVkr/fTh1JHfDdF4Kts0pxKS+EBB6AjvpvWG4QScPMAqbt0P/br3dRQguwoX10oAQGzJzYeSkbGEXdhLzs+DMK9+pyuHiBq+ig8VzUthAG4WUrqnOd0H879HxL5rbLBrbKix5gIMk/tINyjDwHRi+uG0v55uOtDiafnk/q+iVC6WUFJYaH+lgfFprzQ0CQVZEeNqel52/qtJ0JC6e5U1QT79h+oerL/s1W2nbvUbPv2H1A2M0/5xaqNk57WH+fpquD/llRVVaVVTe7cpcq287SqXcr21W4oC8yg2Of6TyXGBVVVVWX/maw/l8lVCWplbUNKqjLf9zR6T2ydRldFfqdsZ0Lu2qqBJl5v2XdpVe//v6erbDv/sSoy16CiWj37VVVVVVX9lFY177nqc3miavRGxYk09f0zu3151dl1vlXO1e/ByH9UnS1XttGrOf8GtjfSlHs17EZBVULN/09dqpz/39aqfLPPXdTn5s2bNdvy5csb3Qzbf/75l8rDmc3sHhPA80P+QID/qzWPZ7898xbmlSq4uCOUQQ8/R8iOQqAPoSn/I3KUmb/ZmtQT0VPsY2uveK6bJ4kITwagvd94Rpt7Cf5mIYl//SOe/zgJdGT0hxFMeUQ38Rr2h1FE3UJnB6B9rxGEbcgi/1QCAY8oa+tRkUfq0gBcXAL0z+vMlC2Z7AhQ9P6a+v6Z0b68cA9hf+jJoDkHKAFsh0WQmTIdF+UQtJp1L3wDxhNgahvmrGzdiAoK9kfj19+VKTt0tyw4jl/H8fXKeSdxN2lSMGEwpHt+yHO3MIQrJG5cT/r/VT9H8ch44o7tIuwZM0Ppjigl9e++uslw+hAWOoL2yiYmlGQafhgcCNiQSVzgeJZ/GYev/mrR7YQTQHsHh0ZvNC25epK4d/1wefg5/Fbs0Q2hegWRkH2Q5R539n0tz9lD1LRhOD1VHYYdcX9vB8cTxzc8lHUYQejKCCJNbZNNDP1M0RRyfPMixvTvicu4Rfo75x3w/GAvx1Z7Y9vQ8wuL1+RgAjh+NIPPt3+mLDaDAwEfzqdfWwc839vBxa8jGN0FCr5NZueOPaSn7W+RP0WpUZFH3ET91Rug33tRBDfSQynP2UP4q670eFH/YbAdQnjK/4isnsuwHcG6Iwbh5BVMatMuIjbBNqb0H0XI2gMU3NR/4LccJP/r+XjaK9s2h1KO79pAeJAf/bt1xekPAYQl6JO313jiDn3LjmC3RsK0guy9yaSfMTG/1NgcU8VJ1r0dgPtTPen0sCvu06NJ199g6egxn9TsLBIm9zLrF4uwbLcUTLelVxDpl7JICHar+a12LGYKAX8NYMyr0forVC3wv1bRHkIGPkfIF7pQ6jE5gZ3BjU16V1DwzWbWpemHDB6LyTyVQLCyx2c7gnUp8+kHQCEFjd4UbU4bY4ajJNunx7F8Wxb5p+II83C+g+9eRzgcTcTWA1zU50f7PuMI33KQ/K8j6r11wFgBX747hTHurrg8ZWKbphtSm2TVB3fnQo4XVoeXFT3+NJ2Er3PJ3hLEwDsSxqI1mH27wJ1UkLaa8C9qb3h09HibsD81cg9Qc6jIY+ecUHY8G0HkePM/0NkJ0Rx6cjwBfRoeKpXs2kz6s+MZXd8HZv8i+k/bRjl9CN0Zx5SmTK9cTSZqa3teCByBi7lzYs1Bs4dZE2Kx8ggkIGAILrbmhJGhQlJXfMjOK8pyvUsHiNubV//tAjdzSIzYA8+PwPPZXjT56UWTtNbtAhYRTELUqCiloKQcrGxxlNRpda0VTC0/lBOiIVYdcXRwkFC6x0kwCSEsjgSTEMLiSDAJISyOBJMQwuJIMAkhLI4EkxDC4kgwCSEsjgSTEMLiSDAJISyOBJMQwuJIMAkhLI4EkxDC4kgwCSEsjgRTtdpvdxBCtLJ7J5guZJByrFhZStF3ueSXXSbmzZkkXlLW3qJKLVqtstB8+Unz8Z2TQr6yQoh7RCsEUzGnj+ZSVFzc4Hbu6BHyypT73rqiKwfZNGcSvot2k28QGupja3jvc5gU0pftq1IoMtzplmg5HT0dr9eWkVKgrDOPVl1Mka0dTsoKIe4RrfANlkdY7R/FPoMSbel11G06YW/0FbHdmbB8ET6Gi1LeruITxH+wjBitP/Efeek++JUnWB24G9f10+h1TYNTFzvlXrdAw+nY+cxM1OA1/wOmD27aMfPiQwi85E/a7MHKKiFaVGt9g2UrBFNd+5aOI6Z7JLH+3ZRVt+/CCbJs++Jakw1atFoVKpVxM9Qa1DbW2BiWaTUUaRoak6mw6WiNqo2yXCc/NZygFWd56u1Ilngowum7eFZfGMt0z7pf2C3BJCxFawVTKwzlWpKGzJ2fMNc/kND4ExRVApgIpcrLxL8dzNrDihA6Fk9Q8Iyazd9/Ev6v1z4OCm54uObkGUbsineYPkwRSpWXiVnxGVlXCqg39r5ahpfvTBbEZ3BOXW8rIX6T7poeU158CIEbLyuLTXJ+zfhY2qu7WTJjDZl93yFp3mCMc0nLuY1zCNrpQsSW13Gtp/cDl4kPCuHia9uYO0RZ1xQa9i0NYkHeWGIjX8HZxPPlxYcQ+J03kcM0JGxJYN+FG6geHsyE1ybiO8RRcf5C3Dmt1WO6a4JJW1yA2syPpBZrnOwUbSuLKSqzw954rKYPJWumL1+Ez8OGdUrNEUwaTq+fT8iubiyIfYuhRudSSzmU017LJi0hlpjPs1H5riA+sKdyFyHuiNYKprtmKKeyc8Tezs6srU4oAbRRhFJlASmLgswMpWagLSBlUTAhu6yZvrz+UDJF1dkFrzeWkrh9LStGSyiJ3767JpiaU9Gxzwj1n8rqH0cSGXuHQ6lSS95Xawh8Wfd8EZ/cxvOpHHHqrCwU4renhYdyBSTNmc2m2kV3od7bBQBnPyI/0F/Wv11aDecOp7BpYwL7Llnj6j+Dua/2xd7EHI9pTRnKaVFf/Z59uxJJSDpCXmU3vGaEMX24efNDyqGcEK2ltYZyLRxMWvIOZ5CjVpbXw6YnQ5/tZtaHuV7aE6wOWUbKBQ3aDt0Y6uvPVN/BODV60AyWjFpGmrJYafg7xgGiPUKEfzgppaDq4oKX3+tM8OzZhADUB9MZH1LCR97eaxfiNt0jwdQ68k8eoejBvjzp2EIf8zIN6jbW2Nzi02kvHGHfj463H8pC3KbWCqZ7Yo7JqY9by4USQIdbDyUA1cNueEgoiXvYPRFMQoi7iwSTEMLiSDAJISyOBJMQwuJIMAkhLI4EkxDC4kgwCSEsjgSTEMLiSDAJISyOBJMQwuJIMAkhLI4EkxDC4kgwCSEsjgSTEMLiSDAJISyOBJMQwuK0wjdY1l0i3BSbR/xZGD4S55qSXJJWpJBj1MqUnoyd6cVjymIhRJPdQ99g2ZORkwOZ2sDm9yTkFWkU3+BYyKnUg+RojAqNaXLZl3qWH5TlQoi7Siv0mBq3b+k4IqwXkRTS16A0gyWj4umxPhL/7gbFhi59RuDkS0za9RZDlXVCiCa7h3pMjag8QeZhazzcDUNJCHEvsbhgUqclkWLthXd/Zc2tyYsPwWPUOLO2wPjLyt2FEK3AsoZy6gyWBC7jhwkxRPrYKSpvbSinLS5AbeZ6I1qsTS8vLsQ9SoZylZeJf3sZaQ9OZFadULp1KjtH7O3szNoklISwDJYRTMUniHlzBjFlXkR86GNwi4AQ4l7UukO5ssvs2/IJqxNPoO0zkRXhPjxWb6dFt2T3PrtO2NS33HalhqLi51ggV+WEaBatNZRrtWAq+nw+/pEnwNEN36ApTBji2MhMkG6OyX7FIvy6Kuv0riQxc2ax3C4gRDO554IJNBQVtMO+JZfuFkI0SWsFUyvOMVlLKAkhTGrFYBJCCNMkmIQQFkeCSQhhcSSYhBAWR4JJCGFxJJiEEBZHgkkIYXEkmIQQFkeCSQhhcSSYhBAWR4JJCGFxJJiEEBZHgkkIYXEkmIQQFkeC6XbVfl2NEKKZWEYwHd2Av/8nZCrL69CSdzidzAtaZcWdoz5BylcFKJ9RezWbc2oN+xZPZUmGsrZx2qbvIsQ9wzKC6UEbVNc0dT78dRWyb/0qkr5Tlt852qu5pH08FZ+QeLKKDSrykln88VkGzXgF9UcbyDKn51RZTNaBbNTFu5n72ioyy5QNbsURVvsH4lvf9upUIg43/s4KYUksI5iayMa65b75UvW4DxHxawntvo/Qv60hS/8ZVw2eyNj8T0ksHknoSh+eMrVAgjaXlI8/IfGYPtHaqFDvXcXqbHfmji9gdXyuco9b0JORkwOZamob1R11cSd6PNJy75cQzaHFv/P73Odr2J6tKNTksu+Ahl6efXEyqujJ2JlePFbz+DLxQSFcfG0bc4cYNWxYpZb84hs4dbaGaymETj6Lz3/eYqg+TLTHUkgs6Yuve7faBRGuZZOlfQTXLrUfaq0WVMrPeJkGtcq67sotlZeJDwlh04+dQHODp4KWEuHTDa6lEDJfw6xID2xK7bBvviX0FLTsWzqJiPbvkPSmLLcubs09+J3fLejYOoJmbOccQOfBDHo4nZS9tcObvMMJJBwrNlql5dyBWJZMnkDginTyq3tJylBCw75/BDMzqaBu+fLZxOBP9JZYkiK9+Dl6NnNTC6CzF5Efv4JzmzsZSsB3n7I2/QmmTpZQEnefFu8xmXTsE3wWwYL/vI6rss5I4z0m9YFVrNa8zlxPa4PSXGJem0/Rm5sIHQDa1HC80geTEj4SlaLOSPEJYua/T3yZH7HrX6mzEGdR+ioClxYwaeNSfDrXlufFzyRwezcWxL7FUBtdmfrAKgIXH8F1XjRzhxiem05efAiBGy8ri01yfi2SWP9uyuJaZUdY8lo4F/0iifZtoJ0Qjbine0xFF3JROzrykLKiiXRBcRzqfO574j7chrTUDLSAaug0EueN1PWQjqaQpHkOj/7KfQC7vkyKjCVxeX2hlI1H+LtGoZSfGk7IRi3+y2tDCcBmyFvEznMjc3EwSw5oaiv0nLzDSNwSY9b2gbeDcvdalZdJem8VaTfc8BspoSTuThYQTBoyM7JxelY5v9QElQXsWxGC/9Jshi6MMtkjecx/NUmzB+vCqIMd9h10H+KY6N04v/YXXJVzRDWsFUMuDadjZ+K/NBuP8BVMH2DwXCUZrF13BKfX3mHSw4b76NgMeYtIf3vSFs8n5rzxlTKVnSP2dnZmbU52dcaUOpWXSZozm9XqkYS+WMyS1+eTdEHZSAjL1+rBpM34hLXHXPAb3VNZ1bhKLXlfrSHw5aksOdOXBfFrjYPCkEqlWOlXNw8U38afWS+aN9mjvZpOxORAQnY5MD3WxHPZDmbBJzGsaGCY5ey/iMiXID5kDvHNGRoFGSyZHEIM/sRGTsRr8iIiR2lYPUvCSdx9WjWYtOfjCVmUjpN/sNFwqDHqa9mkxS8j8OU/Exh9Cde/ryVp/esMMi9fQFtAyqJglnzrxoIPX8G53t6S/oremd2snjEVn8AoTvUOJn7jO3g5Khvq2dlhMIIzwZonJy9igXsBMbNrbz+4ZZXFZMXPxzdwJRfdFxH7gZf+9eifxy2X1bNWsU+t3FEIy9VKk9/FZG1cxZItZ7H3fZ8VgS6NfJirFZPy9iQiTrbD6YmRTJjii0dvO0VPqAHaYk6nfcryj3dT1NufD+a/wpP1PnEBSWGzWXv0Oto2jjzp9Qp/Hz+Sx8wNv8ZUXibrjB2uferp4ZmjJJ25/28Vme37MmnOW/j3N3VyGvYtDWKJ+nUSw93NfJ+F0Gmtye9WCibdFa99ed0YavLD1ACtFm0bFaqGejn1yEucSdB/2uEV9BZThzs2Gmjq80fI4QmeetS60batRVtcDHaNhLO6mCKVHfYNNhKirnsvmIQQFq+1gqlV55iEEMIUCSYhhMWRYBJCWBwJJiGExZFgEkJYHAkmIYTFkWASQlgcCSYhhMWRYBJCWBwJJiGExZFgEkJYHAkmIYTFkWASQlgcCSYhhMWx0GDScHrrJ0R8nMRpS/7mxYIMYlasISZduXzTLbi2mwVzUnRLTBnIip5JRHrdxQvqoy0ppqjY9Ka+3W/LFKKFWOb3MR37hAWXfFkwLJslH2sJfdu94S9Ca5QWbZkKVQdl+e0oJmlpIs4zXueBLeHsHhLGpEcN6wtImjObfYOXEuFT3/fwVtOS+eEk5p7siVf/2ra9+jqS/FEC2gF/5CnD79OzH8ykwG7smzObTXm1xT38gnFNDmdTSSds2oC29Dpa69qfB82uf9krIUxpre9javlgKj5CTEwGRcpyQwUnONX7LVa4nyUiuSdLQvoCuSStSCFH2bYO5eq9UPT5fPyjNfh+sIhJZn6VrckVg42oyTkGfksnokr4lPwJb+Fr9L3lja+BV60ofRWB8Q588LYV/5x5nrHrX8c1P433wrbz0N9XMNXlKBGT/8dTH7+Dly1wvzX2tiq0JcWoLyUx8yOYtdwH5/Yakt5cBmGR+HeHfUtDyPOv/nkc+4Y2fi5CGGqtYLLIoVx+fgF5J5JJyXBkelD1SrKFnEo9SE5DoxpNLvtSz/KDotj+xUXEhjiQ8nYQoVtzaZYRjaaQ/ILvSdu+D7X3REUoNYUWbWVPQhf58+Sjr/C3Gf3o0cYO+0cd+H2ZG0OHO2LfxYvQec9ACbolnGx1/UeVrR32tjbQxgYbOztsOqALzMPppH2Vzql8w5+VzyuE5Wr5HlOjdD2NDO8YIn0Mxy8ZLBkVT4/1uh6ASZc+I3DyJSbteouhyjpAfXIDM99OQvvSUqInuxgPD9W7WZ3Yk+mBZi4jdWAVHiutiah39WDze0wc/gTfjw4qCm+gvqZF1bnu94338DMYHl76jMBwWBj9Cs5cJj7oXXJGBTLUDnKSYsl3r/55FUW+ZpyLEAakx1Tt2hEyLrjgPqSJixSYwabPRKI/XsSsVxWhhIZ9/9hA2oXLDQ8xDWQdPoLN0OfqCaVaaYv88AlZRvyB3Ponn7UaivoGkRgbRXTUSv0WSfyWaGJrHq8kdn0sK7xt+El9A4DMjwPxnZVA3qUEZvoHsvowgA29nnXHY7g7TzkZ/qx8UiEsl8UF07mdKZzu/Rwetzw0asTDfess2ZQXP58F37oROssde+Mq08rSSUyFoe7Vw8z6DXrjfaYPht3LZ+Iz1o/AxZ+x76oioVTW2Hdsp+s5/X0VMTGf1tmW/H0SIVsvo7Kx4wGbdgC4vraS6DBvnLt4szBqJZP6A1xm06xAfP0DiThg+LPxUwphySwrmNS7iUlU4+HrZV5ANIP81HBC4mHS8rcYauaia+fiPyWz+1j8Bihr6rLp7IKH/zvEbv83iStex/XHL1gQOJ2Y8waNnn2dxDfcdD8/4s6kSX+ps3k8oqt28llUM4xT2SjmmFTd8P0whvh/riQ6ajZejuD6//S9rY0xTH/W4DmFsGCWE0yVl4l/ew2ZAyYyfYhyVuUOqCwmK3YmgR9dxiN8Ef4PKxuYpj6wipmJ4DvzFZyVlQ1SYd97JNM/iiUldiFjjW4tMPB9ep3eUkzMp5zqOJKhjzZ2RVGL9ldlmYHa6QIhLJplBJM6m5g3ZxCDD5GzR97h1WK1FB39jFD/SYTucmD6+tVMH9DYB14nP3UZgYuP8NTMhUx9XFlrPlUXx/p7hPY9cR3Q1+TWo+wEp68pdwDU59kXv4aI1DRigmcQFDyDoOClJF2FrJjqxzNYkNoMN4IK0QJa96pcZTHnUj9l8ce7yX/4FVZ84F9n/qdWBktGLWOfne6GQZMqNRQVP8cCE1fltCW5ZH6eQsKu/3H6mjWu/jOY+2pf7Os7lgHt1Qw2RUYTfwyGvrmUBZ6N3TBJ067KVTuwCo9EO+b6mL4yaHxlrZh9sWvYlHycczfsedLTi0ljvXDtUt3bvIXnF0Khta7KtVIwacj6+H0WpGSjbtMNr7+HMb3RJbt1twvYr1iEX1dlnd6VJGbOLFbcLlBAYshU1n4Hqo49GTTWl6m+g3Fq+MkA0F5IYcnCWPZdBadn/Qid+QquZl8s1AXDqZf/zRJPM54MfTCl9iXxTf18k0LmR5PI8qwNpsykdFR9RuqXMNeiLtagLSskJ7sANcXsW7+Bn9zfYmxN784R1+Eu9ffWhFC4x4IJUOeSdcmapx53RGVGr+W2aDWoK631NyA2Tf7JE6gfduExGzPDpYaWvMMZ/PDgYAY9bOa+B1bhEV1s9GcphvKP7cY+qL4ekDl3xte9K16Ihtx7wSTq0moo0rbDvp4Q1KqL0arsqKdaiGbXWsFkGZPfQkdlXW8oob89oIFqIX4zJJiEEBZHgkkIYXEkmIQQFkeCSQhhcSSYhBAWR4JJCGFxJJiEEBZHgkkIYXEkmIQQFkeCSQhhcSSYhBAWR4JJCGFxJJiEEBZHgkkIYXEkmIQQFkeCSQhhcSSYhBAWR4JJCGFxJJiEEBZHgkkIYXEkmO6YCgr27+FQibJcCNGYVg2mizsWETIjlJD1RyhXVt4NTm7Wnf+MzRyvLqvII/HdAMK++IZ10wMY83YyzZ9NFVzcn8zOHcns/LZQWQlFR1g3bRGJzf/EQrSIVl1X7mLUMPovzAG/OK6vGaGsvgNOEjdjA4eUxaZY9yHgrYkMbGjZ2u+jGTRwEdmMI+HHKDwBqCB1Wm/8do0n4R8lvDY5h/fTdzGll3Ln25M6rSt+CdB+8g7yP9Ct3FvyzQZCF5xkTKQ3O14IIHFwFBc3jcNWubMQZpJ15UwoL8mjoFl/6xeSHreZOHO2tfPwdBnDuqvKY5jQ63F61DywwnPeYjy7l1Dy5AouXGj+UDLUo+uDNT/b9nKAbzcTvArCPxwBaWuJO2PUXIi7glk9phfHvsL+AweVxUb+8qofH0c2nqiGjHpMHz5DQd4JDmXsJzVtD6l7T1JQAdgOIXzLeoKf6ajc/RaY12O6uHcz6ZeAXu+Q+fV0XPTlqXNcCUk2aHizhILCCsAKxy7G/ZL23ccR/sl8RncxKm421T0ml/cOkhnsXFN+MWoY/dc9Q0L6YtzbW9Heymg3IZqktXpMZgVTvwGDybt0SVlsxLl7d44fzVAWm1ReVMjF09+wc20w4bsqlNUKvQj7ei+hd7DXYayQuHGuhOw3HiZhEAbm8t10hXWjlKXNoyaYZu8lc6bBm3MTaGvYUohbZ9HBtP/A1wRNe5MrV65AFXCfvsLg58+3J/L8kD8Y7lZXzZyMCVYOuDw7hBc8PHB/vhcXl45iVhrYTt7BRYNwKM85wJdnmja+s+3tgXsvM7sOmm34PRxMqolgKS8ppMQgRy9+4ofnP3JoH7COY7OfqSlPn+PKlB119y/4NplDebWPzdHjGW/6meh1GYWkVR88gycSNukl+jmY+TqFMINFBxPA0uUrWfrhCt0Dw3ACZr89k9mzZtQW1GsPIQ8GENe2Iy6DPXj8ejI7T1bUmfwu+SIYl4nbKLcdR8KRKDwNRkk1w78mUA53GlJzfKuJ7LiwGPcGeh87g7oSsBXcV2axI8BBX5pH1AvPEfYtBGy5QqRHbfum9rgwEY7V6j1WlyEEz55PyEv/f3v3Hhdlmf9//LVrTfoYfiKzJuQByzQ7eIhcxValTVz4YilgQbVoP3Et/CW4iZhmZq1rHvLUhraSLrgh6ZcpEW1ldaUDyFes0PIYiaZoBqzNCM4sMMn3/v0xB2ZuToMHmPTzfDzuh8x1Xfd9X/c98J775FwD8JWMElepvYLJ7Yvfc2cn4t+rl/WFUyj59+rlZigBjGb56VNc/OE4+7PWsOiJRsLiRArjJmdRQ2ei1i52CaXrrjKL2bbQ6x0/udlQ4nIBef8A6EfISHso2dRYy/v3cS2+Hvr/MZ3M1yIZZN9P5wtYMyOU/j3dvHAvhAdyO5gA3kleRY8ePRqUtUZHbXMf41XsTrU+EzTote2sD214wbv3tE+5+O/vWzXtn9ZIAKpdPsGaJ62ncHg/w/KE5i9qVW5fx/paoFcYv7vLuaaKiwaA26CDczmE/KVh31qa1jsdcTWqS19C4teQV/I9Zz5ZQbw9JH89gfGNnAIK8XPQqmAaOeI3TIp52vF67kuzWr6u1CqdCVnyKWVHD7IjvolgaO4opiktzVNZxKJxv2X+VwCdiVq7gBCtupGTyo9JeuljAIa9EOu4awfA5VLOVAD04x51HrbUj8a0Yh7vAc+wKOsgF4u3s33JM/iqGwjxM9GqYMLplG7kiIdbcQrXOh27dWujhwJrObM9icB7x7PiS4DOjEv5rNEjNYfLJ0ifOt36VLX3ZBZNVp3GHTlMHupnm9qYbghBDzZ3ZCqEZ2t1MAEcOlDIR9s+UBe33i22P57MV0hIs/0Xi+072bE9izWvJpEwMZT+rxao57pqNd8VsH7pJIJ69mHwHzZTfBm4pR/xW/aTPkEVNM4qi1jzzHgSPq0CBrAo5w2G3QLluSmsybT2e9GfUigHGNjX9UhKCOG2Kwqma6V36AQGAVBK+kvPMekP9ime+es2k77rCOWGlp5zar2O3pV8vuFjDtkW3T/6DXYf/ZRFwc0cKdUWMf9345n/aZX1dG+THsfZ5vlc5k+39nvFXutCx4W2dHHo2jjz/b/VRUL87Ln9uMB1YzjC7ux/sOOw6g9M24+gob3w7jeSkPuaCYwr9dVmEv4Jz7Xm2Z/aE6yPe5Py+JXMd34S/chmElKLHC99fzuDpPH+dKxvcY3Vop/Yh+d20eBRCyGupfZ6XKD9g0kI4bHaK5ja9VROCCEaI8EkhPA4EkxCCI8jwSSE8DgSTEIIjyPBJITwOBJMQgiPI8EkhPA4EkxCCI8jwSSE8DgSTEIIjyPBJITwOBJMQgiPI8EkhPA4HhtMppN5HGx+jE0hxA2q3YPJlLuMqJdzKLMXWIpYnJhBGWdZtzoHg2vzq2Bkf9paUguNqnILxzasJeeCqhgAC6Vf5LH/tEVdcf1cKCb3k2LHdpd8tJYVH51SNRLixtbuweTVUYPBywc/e4FmCBOHHOAvR8YwbVg5J9Q5csV8sJTvIf+k2VFiKVhNTHIxfYfeSupbezC5tAeoIH/DarK/VZdfR9WH2ZTxpaMvGsM35BypUDUS4sbW5sFkOV3EwZNGDEbrVHK2HCwmx2uD0Yhm8GT+GOxLwNOTCfRRL+Ha0YyYTPR3G9HrJjNv6E+UVatbWHlpNeqi66uD01f9qsamE+Jm0ObBZPg6m8ULEomLt04vbymGrzMcr+PiE0mYv4C4NYXqWa8DH8JffYngrhoCwsPo20ldL4RoD20eTH7hC9FnpDmmGcOhb8xSl7KVUT3hl7eqZ70mSvWLSHgnm4NnbdeNfHzx86RAKj1LqbpMiJtMmweTq1McPazlgXsajhnr38O1rDQjgeDQSLem2IxzLvM60w0dTr+SHObFPUXYs3N5O6cYw1Vc2zYVrGbx7vrrVteknx1upY1PHoXwKO07SsrJDGISKpi2YyajnK6l5C+NJLVXMmkxPR1lFmM5Jjf/XC1o8fNp2NZluRYjx3LfZ3nKHkotWsJeSSVphHqec2TEJXDm2SzmjVBVAYa81cQtP0TA3DXMG2EdU/xq+1mmn0XMyShy5w4HW9DFno1xvAYo+SgHwsLoK9efxHV2E46SYiFfn4MpZIxLKAFQB/3urA8lAI2PLzofH7cm9R97ozQ+3B82nbRt/03GKzOJHu7GPHZ15eSvTCBmaTGj/lQfSlx1Py0c/PoU99/X9Bi+pdkLmPX3b/ihiQv1QtwI2i+Yvt7IiryeTJk4UFVxjhPfafHyUhVfNxr8RgzBXx2OjamzUPrJWmKfmMbi4wN5PWMdMx6qD6Wr9u37bPqiP0EjGrkVWWdkf/I0YjfBlOUzGdVm+0eIttc+wXQ6m7j5OfjFxBPeVVV3oYiDZ++l3z2q8nZkulBMbsYyYp94itiUswT8cR3ZG56/to8y1J0j461siHqeKPU++W4nSTFTeP3rh1j87kLC71TVC3GDafNgMuSuJuqFjRC+lJX2a0jVhSyOiSUqJpaoqRs59sAQAq/HnbL602U3adF5w/6UV0kt8iF6SSo5W5Yy41FfN68iuctI9uwEUolhSWwfl5ofysrh7FkYt5CMlGschkJ4qLa/+G05Rf7XWkYNdb7rZsF0spj9pUbo5EvAQ/3RXdu/fNt/SXmfo/f9ninDW/HXbbFg6aBB486p3tUwGTF08kGnXk+dEUO1Dzo5dRPtoL0ufrd9MAkhfjbaK5ja/FROCCFaIsEkhPA4EkxCCI8jwSSE8DgSTEIIjyPBJITwOBJMQgiPI8EkhPA4EkxCCI8jwSSE8DgSTEIIjyPBJITwOBJMQgiPI8EkhPA4EkxCCI8jwSSE8DgSTEIIjyPBJITwOBJMQgiPI8EkhPA4EkxCCI8jwSSE8DgSTEIIj/MzC6Yq8l4Nxe/2HnS5vQdd7kgiT91EtKx0I9GDA+g/eBLrS9WVQrS/Ng+m3dNtoTIqhTPqyhbUbJ3F+HVHqAE6duuGb7fO6ibCHXW1nDlfQfn5s9S2OGz6CRY9ZHvPbn+YRcfV9aIp5V/tZMf2AorN6hrREreC6fGIJ22/mE1PLyTUj8B5veR9utP6Q+gaTh89SPHXCwhSNxLX1ldbST9rf1GKPvuEa71oQin6hOeY9IdX+FeFuk60xK1gKi09py5qYG/BPnWR22oMFZRXVFEDUFtF8d6d7Nj+MYcqal3a1dpf3gaVFU7zAFyutc23kx17T1BzuX4+aqsor6ig0vbJVVNZQbnBadmtmff8EXY31s6mxnCCPFt9pWv3wWyr276TvBPqykaY7fvC9snrssBa6z6wb4e5gkO5TX9C15woaHz7WnDooy2UA8OCR9MROJO5lWJ1I2qpPG5bfmP9bLLOWl/+1cfW+twjlKurHdu1k91fVbj2vak6l/esfv27v6qw/b449amJ/VFTYXufG/weurnfa4+w/xvrjxd/rHD5HRJuUNyQv7dAuX/wUMW7a3fF+1fdrf+qfs7fW6CerVG7XrDNM3KdclpRFEU5oySP7K54d31QiUqYqNxjX3bX7op313uV+D01iqLkKvEu5fZpurJLURTl23XK7/xUdffPUnZdtK30n9OtZc+/r+ya/4jr+t2d97HpSvzDqnZj7NugKMrFL5U//5e6f7Os/VMU5Zu/jlPVdVfuSchV7KtRO72+YXvvrt2V360/Y2uRq0zt2l3x7jpOmTrTtk2OKURJPmVfUqXy2dzhrvWO7X3EqV1jvlSSetjafWtf34PKnw86NfnpWyW5wXZ3V+L3tFCnKIpyMVeJv19V7zdOSf7WVv3PWarfh/p93lxd/Xs2VZk6yLWN/5PTlSjVOv0TcpVqxwZVKrsSHnRdbtfuyu/+auuUO/vdvn7VNCzZ/t79fFy+fNkxLV++vMXJuf1HH/1LvTi3uXXENHLEb5gU87T1xS8AxVbxC+s/c1+axcgRv3G0vzIV7M6tJOrN9aSvnUHQbQBVpG8tALoxbNIzBPWyNe01gkmTnmHSpBH4XS5idthCPr/cmXFv7uLro5+S/FhnqNjMs0uLXFexNYnodSes16e8gdbMuz+LzwMWsP5v61ke7W8t+2ozO74DqEI/fTwrvgRu6UfUa2tI/9sbJE0YQBeA/a8Q8moReI9l+b/2UZy3gnHeUL55Kov2u67GofNAoma9Qfrf1pPutM7PV2/mkEvDIvSFA1i0dj3pb0bSG4AjpP/DdlV77zKiN5QCnQmatca6rMkD6OiyjCbs3Up6LdAtjKB+Iwh5DKCCNf/ttG9y/8L8LwHvsSzaksn2LetJf3MGw3xbqKOC9MmTSK+AQVPT2X90H9v/OAAuFzH/pc2UU0r6os2UA4OmrmF7Vibpf1vDoif60bHZOif793Im2PqeLXrMej2y8tNcLoaqyjZvddxEKU+fSvTmCnhwMpl5B/k6awaDgM9ffYV0l1OyZvZ7jxFMGm/fx7cxaPwzTJr0DFH3ubXXBW4eMdkNDAhs8CkwMCBQ3axZTR8xuX6iONq9kNtsmbJnlrUs4n2lzF727V+UYc7rcHyCTVW219TP2rp5bUdniqIop9ZZ29iPOMrfV8Z17a54d71LScq3N6q3K8Ha73HvlTvKvllt/bR1+1PUsU57P+yf3N2Vqf+0N2q4L+3r9v6vtPptVPe/CZ/Nvkvx7tpduefPhxVFUZTqDydal9VjnvLZT7ZGH9n2z91TlXcPV7rM32zdmXXKKNuy9tvLfvqHbZumK7uUb5XltiPUUXNzldPO71uzdU28Z26VnVGSx9jex0J7I0XZ/rzzfnZvv7u7jz2dRx8x2b2TvIoePXo0KGtPZ45/af1hbxL97Rfjf7OskesgALdx2231r1o3bzMOF9k+cX/NoHvUlaV8e9D6U15igONmQeAbLVxEvlzF5xviCRocQP/BAQQlbG31XUwo5VvbXbSODw7EV13dnMsfk55mvY4SNKib9RrJPUMZBFC7mR2Ftnah00i6C6jcyexH76PL4Gjmby+1Xstpru74YeuRX+1GQhyPfzyH3tGBfkxKGos3cGjDJAb37EPQ9I18bmip7mqU8PVXALWsf7z+xs6krep24nprVTC5nNJds1O4q3SLLWkC4xynPY4p2X6I3YSrmbdRlVQ6rsY7sR3BD4tXreNv61k/wXZa6KKW3YmBhLycxSHtAEKCgxncqlRpqMZcqS5qXu5WR0jo/xBA/wcC6P/oMttpZC3p2wuslbcMYP7/HCfv7RmEDLgNzhew5g8PE51e0UKdbad0i2S5et/r/0gQ4DthPcWfp7No0gh8b6nlUOYrhAx7hc8vN193Nay96kbUEvV7lUnSSHVrcb20KpgA5s5OxL9XL0aOeJi5sxPV1W2ud8Cvrb9MX9XiPXYs48Y7TQ92Uzd3cTXzuhg4xPbYwhHyvqxSVfoz7NfWADxk9nZdx/ixDOquag5AAfrNVUA/5v89neRVK0ieP+EKgrJ+3ez9gkNu/9HWot+cZf1x5AyXP1D7ta6atM3sti/vls4MemYOmZ+c4uvXBgCQV3ik+Tr7PqsohV+r9v1v668VdbxrNPGrMik+nU7ULUBlAZ/bHl9oru7KDGDYSIAKzvBr1Xs1gv5adXt3VHKxlZ8J4gqCCeDQgUI+2vaBurh9BE4mvpf1lGD84PE8l5hEQmISCXHRDH75Y3VrV1czr7NuE4iPtgbA7rj76B8ZT0JiPOOHvcJuYNizcfQGatKi6f94vHUdiUk8F/kws3PVCwPwpsttACfYnprFju0bmf/CW60/xQSGPWVdN2ffJihokrVfEQubX5Z5J9v/Yf0xZNKLLn+gz8VH2AIyi/TttZzZEE1gZDwJSzeyY/tGVrxnDSRvnXezdXSbwKTHAIqYPeS3RNv3feIkgqI2coaPmf1AKNGJC1mTuRP96nW2IOyGt7a5Ots2XJFuRE0aC8DnLwcQONHepySifxfN+u/U7ZtxVz+GAVDBisdDiZ4YSnSaPGbvrisKJs/Sj/l70onvB1QUoU/fTHr6ZtK3FlDj7a1urHI18zq7jZBVu1j+mPUoq3xvFunpWeSdt50a3DeHvC1x9L8FyvdnWdeRvhl9YQ2Nr2YI8ctH4wsc2hBvfUjvvseu7GHSB+eQucq6LE58THp6FuXBzzS7rJpdW9kBwAjGjXS6KAdw32NE2Q4md2zfyS+6+XOxMIv0la8w6Q+vkP4d+AavYPdrQ+jYTB3cRlTKpywP7gaXT7Dbvu/TP+ZbrTcd6YZvtxPsTk9h/vTneG5lAZW39CM+awOTujVX59rd1uo4YQ37l1j3V/Eue582s/u4N11aFXqjibfv99oj7N51hIstPmUv7H6hKIr95v/PXk1lhe2hxo546zrT8RZ1i6ZdzbwuLtdSaaik5jZvfL1Vf9TUUllRab34e4s3vjp1vYq5inJzDR21V3skUN8vvLvRoFtXzWm7Gmx3c3U2tu0E6Kjun6OukfelubqrZX8faabfbqmlsqKW2651/9pIXV19mq5evdqlrjEzZ9b/D5B//vMTHntsjEu9u26oYBJCXFvtFUw3wKmcEOJGI8EkhPA4EkxCCI8jwSSE8DgSTEIIjyPBJITwOBJMQgiPI8EkhPA4EkxCCI8jwSSE8DgSTEIIjyPBJITwOBJMQgiPI8EkhPA4EkxCCI9zYwdT9Tn2f5LHsQvqimuorpxjWzNYsTID/XGjulYIcQXaOJjKyX45lqgY6xSbuIwVaXsouV5/zxcKWbd0Ndua/YJrJ+eziRsbSVKOux2ykLtwGgmbD2DiImdOujufEKI5bRxMP2EyXIT7I5g2NZaJ4+5Fc2Ajcc+vZn+1um0TClYTHPcB1+Vr3X0GMvbxMILv81HXNKGYo0fAP2Imr8+aTtLjfdQNhBBXoI2DycrrziEEPxpE8KPhzHhzMoFVeeQecGpQbcZwvpj9B05hMFmcKsBwodzltTOLyYjBaMTUWMhZzBhOHubgSTOuS3TSqQ/hLzxP2J3qCrBUlnPsQDFlLss2YzI5v3ZSbabs+GGOnTdjafRL6C2YjM51FkzGUxxsZJvtLCYjJQcOU9JYfZ0Fk9GIwajaPsd2G2lsNiE8URt/5/c5MuIS2BOUTFpMT2uRaQ9JT6xF96cs5g2Hsq2ziNlwFp2PFurMGIzQN24VKRMgIy6B1NPOywvi9V0zGVV3Dv3sRNYd/QmNTxeo8mJiSjIxfEDs1AwYPBDTt6dAC6YLZhg+E/2fgvByXhQAhSwOXQYLspg3AvKXRvJ6RRBhVfvINWnxqrmIweJLzFvrmPLv1QQvtI94b/PoHHLnDqc0ewGzUr7B4qNFYzFj6PAIi9OmE9jJunxLTAw/6DMosfRkyoZkYnwO8/aLfyb7ghadFkxGM/5TV5EyoSelGQnE7vIlrMdJckvACzOGKgh8KY3FwdYRCkwFa4lbuocytOg6WjAMSSR37nBMB94l4bUcyrRdrPOZezHtnZVE9XLtthBNuam+89t0uojcT/LI3ZpBUsK7nBkxk2nDrXV+YUvI2ZmJPiMN/ZZMksO1lOwqpJSexKRkkfZsT7gzhrRdWeTumsko4OA7c1l39mFe35JFzpY0cnYmE+M0kKTXQ9PJ2LYJfcYmMuL6YykswjZqd8vKNQQuzyRnSxr6DxcS1qmc/C/OwYiZ5O6aQzDg/2wyubuyyJ07HC5ks/ydCka9uYnsjDT0W5YSpdlD6kf1R3oHv6plWsomsj9cSlR3OLhhGdl+z6P/MM263S8OomSDnv2OPpi4IyGFHH0aen0K0+77if1fHLbWXcjh5Tf24BW1kpwdm9DrM8mdPRzqDrPujRzueCHV2vctaSQNPsW6zUWOfgjhqdolmCzff8PBA4c5+N1FvHx0mA7sJNd+JNRJgwawVFpPyby8Gx7XuDpM/qdm/MdFMcr50lCH+h/v6OWLxvazzreVY217+dLbvtwOPtzRVVWvYijYx7HOAwnsYcZgNGKo8qH3XVBysn60RN2QRwjorsXLS4umw2Hy883c/9C9UGU9FbV074l/3SlKHKPK+uLf3b4FPvj5ORaFoeAzjtUNZ2JMH8c20gE4so98U38CBmDth9FC7zt7wsnvrs/1OSGuoXYJJt2IGJJmTSdp1nReX7WOxb89x7o3sykDOJ1NQkQk4VMTiZ0aS1zGOfXsKrbrPE5B1J5MJjOYP2NFfCJxtim1pAsB99hOXRuw9r9k86uO9nFLPsPU9V76Njp8uCuTyQxoGm6/yYyJU2yaW9+P1z4xobvvLqyDfAvhudolmNR+pfOB8nJ+oBz9mxspC1lqPW3JSCPFfi2qSd3QdQVTtWdc2fW73Rc6jWFehu20zDatmNDUdlj733fiKpf2+ozpBKrDphF+t/taw019wf92H3T0Ycoa137oXxyiaiiE52nnYLJgOrmHdTvO4TV0EA/wk+sdLIuRM2Wut700Gg1cOMsPFqAOoA+Bw7UYdr1PznlbOFnM7XYHSvPQEO6vziFVX15/d6zOgsHYVIes/T/24fvsd3oMynLBSFM3/JxpHhrC/R2K2JZxGINt31lMFrh7CKM6F5P59yJHOVgwXDA7zS2EZ2qXYCp9L4Hg0EiCQ58i/MWN/Dh8Dimzh6OhJ2HRQ7BkzyUsaiJhTyzgYAfXW0h+j4Yz6tY85o2LJHjcavYDAS8sZUbfk6yIfcq63IhY1n3tMlvb6RrGkkVhmN6bRtjYaMIjIgkeN5EVXzQdCAEvLGVGjy+Z93SkdbtDIwlPzHbvWpBtfZbsBUSNjSQ4NJLwBbmUdRjIjOXPc0fhIqLGRhMeFU1w6EQStrV0aixE+2vjxwXcVG3GUANePtr6C7rusJgxmMGrsxaNG6dB15ftOSU07ven2oyhxgK3atF5tWrLwX7DoEPDeS2VRkz/CxqtD1ewWHETu6keF2hRJy261oYSgMY2nzshcN1p8PLxaV1/OmnR+fg0CBZ3abwbn1fj7YPOR0JJ/Hx4ZjAJIW5qEkxCCLd07txZXeSipfrWkGASQrilf//+6iIXLdW3hgSTEMItI0eOpEePHupiAHr06MHIkSPVxVdMgkkI4bbo6GiGDh3qOG3r3LkzQ4cOJTo6Wt30qnjm4wJCCI/g/LhAa914jwsIIW5qEkxCCI8jwSSE8DgSTEIIjyPBJITwOBJMQgiPI8EkhPA4EkxCCI8jwSSE8DgSTDcb0ylyM95lxTsfkH+6qa/7FaJ9tU8w1Rk5uHUtCVNjiYqJJSpmFvPSijCo2/3cnc8mbmwkSTlOX+Z9DZVtnUXw2AW4v/hTpL4wi8V7zkF1OSfKmv66XyHaU9sHU/Vh3p46haS0b/g/IyKYNjWWaRMfxs/SzNDdP1c+Axn7eBjB9zkPeHft6AaMIfzxIB5w92twjMUcLIfgqQtJmjWdKcOvT7+EuGpKGzvwdowyesJSJe+SuqYR/zEpP16qdbysvVimHC36RvnhYn2Zw+Va5VLJIeVAiUG59B83yltQe8m5fa1yyXBSOVB00qU/jtpLZcrRY43XNabZ7bCpvWRQThQdUk64uUwXl2uVS99/oxw4VqbUXnYqL9Urk0MilDf2OpXZtNynWuWSwVS/vFqT8qN9vzYxi2OZje33/5iUHw2GhvvsPyblh2OHlKPfO61LtJvLly9f8fTRR/9SL85tbfztAod5+4kF5IetRD+1j7oSgNKMBGLzBjLl7n2k5l6ER+eQO/suct6Yy4pCMzofLSbjRbh7MilvhePfATi7h6TEtRylC14asFTpmJiykqi6JsqbGEgyf2kkr9c9yZSybFK//Qn/Z5NJCzfy9ot/JvuCFp0WTEYz/lNXkWIbJ65UP4u4DafApwteNWZ0vXwpsTxCWsqT+FPI4tBlsCCLeSOAuvJmt6M0I4HYXb6E9ThJbgl4YcZQBYEvpbE4WKvuLhSsJnghvL5rJqNs6/oheAym//kMk9a6fIvvk6RsiEGzJYHY91xHSPF/Npm0pyF7/qu8feQndJ1vxVJ1Ec1v55Mxawga2zItMTH8oM+gxNKTKRuSCf/3uyS8lkOZtou1j+ZeTHtnJVG9bPuwIoiwqn3kmrR41VzEYPEl5q11TLkHwEz+ylks3l0OnbugqblI4Fzr/inNXsCslG+w+GjRWMwYOjzC4rTpBHZy6bZoQ+317QJte8T0n38pL4dEKPHbDOoahzOb4pXRIXHKGx+fVH68ZFIuXapVftw2Rxkd9mdlp322S/uUN56MUH6ferJ+nv+3TfnBeUGXmy5vSt6SCGX0hDnK34rKlEuXTMql/yjKgdUxyuhX/qX8aJvv0q4/K6PDVimFiqIoJZuU34fEKK99ZrItoVY58PZkZfTzeuWMoiiKsk95w+kIxa3tCJmjbPrefhRhUDL/GKGMXrLP9lpl7ypldMgqJU9RHOt6csU+R1+VojXK+JB4ZVOp7XUjR0w/fjhHGT0pRTlqX2VxmvL7kEQl83vFsczxMzcpB743KZcumZTa2kPK8gkRysuOjTApO1+JUEYv+1JR7Pvw92uUPHv1ZWv7yZvOKopjHyQqfytxOlK6rCjKv7cp8SFxyl8O28ovn1T+OilCeT6zrL6daHPqo6DWTFdzxNS215iMZn4EfuXT0rWN/ox6tA86Ly1eXmbyPyuGEWMIs8/mNZzo0C6UFeyjFPDz84XTOaTmFGOwX6jq0HQ51WYMRmP95Dw6ZtdfM+YhX7y8tHh1Okx+vpn7H7oXqqxtLd174l93ipKzYDhymDKGEBxkP5rR8CudV/2yXBhb3A4rX/y724cz8cHPz1HhFi+/nujso7Lc7otOVe/KSP7eYrweGoKf2bYvbu9Jb05x4rv6VrohjxDQXYuXlxbN8X3km/oTMADb/rPQ+86ecPK7+m3w8qW3fRs7+HBHV3uFfR9EMeVupyFbOoChYB/HOg8ksIftvanyofddUHLSqSPiptG2wdTdl97AmdOtGXTRjMlsCxQnmk5ecLaCM4Am+CVSEu7iRMpcoiKiiV1ZSFld0+WlW+cS9fSU+mnNAdeFO5gxmaBk86vExSdapyWfYep6L327g8nUmrtaLW9H27P2yfTpmvrti8/gRNeB9PNXt7UxmTFxik1z7e0Tee0TE7r77qKpWeo1vg/Ati/Nn7HC0Y9EUku6EHBPU0OrixtZ2wYT/XngASgtKHRvlFkAuqG73T4ceD1LtQl6daM3ABr6hs0hbVsWOSmx3PE/y3jjI2OT5f4xyeTuyqqf5g53XbhDN3Rdoe/EVegz0pym6QR2AP9ePYFyyi6o52uMO9vR1qx98gpOVG3fQqJcB0Cud7sPOvowZY1z+zT0Lw5Rt2yEbR+YTA3uwPrd7gudxjDPpR9prLBdyxM3lzYOJh/C/28YXqczmPXyBxw8b8ZSZx0ptuz4qSaeY9IQ/OgQKNCTetL262zMY1PORfxGPIw/YDHVP2qg6d4Hv47Wn5sqd18fAodrOfbh++x3elbIcsGICWDoGII7F7PpzQzyTxopKfiA1D1NHQ22vB1tT0Pg0P6YcjLQn3eKimojhmrndk7uHsKozsVk/r0IgyNkLRguuHP0aF0fB3JI/dq2Q+ssmKpB89AQ7q/OIVVfXh9adRYMRnWEiZtBGwcTMPh5MlbG0O/7TJJiJxI2NpKw6CnEvJzDCXVbG03wTFY8bkH/wlMEh0YS/PRqjt7zPEuetd7ZK8mIJyw0krCnYwkbN5cc3WRmP+7TZHlrBLywlBk9vmTe05GERU0kLDSS8MRs6xFfpyHMWzOHUdV7eHtBIss/vZWAh5r+hG9pO9qDLvxVVjxuJjX2KYIjrO9H8DNr2V+jbmnTYSAzlj/PHYWLiBobTXhUNMGhE0nY1lQgu7Kuz0L2S1Os+2DsRF7eXQ5dw1iyKAzTe9MIGxtNeEQkweMmsuILdwJP3Gja+HEBlWozhhoL3KptdGjrBixmDGYLmo4+eKlvIdvqGiyrqfLWcrOvpe8lEFs4hox3wmnyunVz29Fe7Pvpl1p03k1vnzNLpRHT/4JGewXDj9dZMFWZocG8FkxGMxY0eHVuxfDq4rpor8cF2jeYfvbOcbDAQu8BPdF5g+lkHovnruXH6GRSopo+chLi56K9gqntT+VuMGU5bxLzzFMEhz5F+IsfcGnsQlZKKAlxVeSISQjRJDliEkIIGwkmIYTHkWASQngcCSYhhMeRYBJCeBwJJiGEx5FgEkJ4HAkmIYTHkWASQngcCSYhhMeRYBJCeBwJJiGEx5FgEkJ4nBsmmAzH88j94lyD75IWQvz8tHEwlZP9cixRMeppAdnn1W1b52j2ahZvKKRMXXEN7V8ZTXDUuxxTVwghrqk2DqafMBkuYrj9EaZNjXWawglo3VdxX3elGQkELy10Kes3PJywiPYaOECIm0cbB5ON370EPxrkNA3B363vvrZgMhopOVDEMdsIK1el2ozhfDH7D5xyHfQS+NHgNCyKjW5EDEkxA3EZ0rLaTNnxw833x2LGcPIwB0/Wj9piq8B0vpiDx8sbrF+Im1kbf4PlOTLiEki9a04jY7kZ0b84hU13LiT7xYGOsuzEKaT6LyT7RQsrxi0it2MXvDRgqbqISTvGMbZ9/tJIXv8uhrSUJ/HH9hrn9RSyOHQZLMhi3ggo2zqLmA1n0flooc6MwQh941aRMuEci0OXkevUM+60LpeMBGLzHnGso2z3MhLeKsTUuQteNRcx1PVhWvJKou4Ezn5A7NQ93BHSjRP5p0ALpgtmGD4T/Z+C8Ko+zNsvLCDb2AWdFjCbCZibyTz1bhGiHd1c32B5bCcrVq51TKmFRsCH4KD+mPLzOGjfFxfy2HPUl/BxA4GBzMjMIkdvHQgxe/N0Aox7yG1qEN0W+IUtIWdnpnVgxS2ZJIdrKdlVSCnDmbcri9cfBR6dYx0Q0xZELi7k8MZbhfRLSCVnSxr6bZt4fUQ56xZkUOJoVM6lHtPJ2LYJfcYmMuL6Yyks4iDAgT1kG4NY/KFtcMdtmcwb6rwCIW5e7RNMTdCFjSWweh+5X1tfG/L2ccx3FEF3A2jQdLKdFhnNWLy80Knmb5VOGjT2IYiqwcvb5QStRYaCzzhWN5ywEPvFMS2jJoxBV15I3un6dnf08sU+OpHO17e+wq8bftVF6N8rpNQ+uKQMVSQEtFsw3T+WpFnTHdOU4bY/7k5BRIVAzu5CwEhuXjH3R4ylLwBm8ldOIywilrj4eGKiVrmebrXW6WwSIiIJn5pI7NRY4jLcG7DRzmQyAxrXMOnkhRfnKPveqawpd8eQ/Kcwaj9ZRWxENDHzP+CYSd1IiJtT+wRTMwIeDcIrbx/55XnkfTuEiDBbaBW+y+u7uzEj03b6pU8kWD2z28rRv7mRspCljlPDlJjWDbnkd7svYAHnU/BqEyZ64tfDqawZuuExJL+XSU7GqwT+O4OX0w6rmwhxU2qfYKo2YTAanSanO1qDxxDeNY9Nf9rDsaAxBNvv1qmuwVnOnuMH1yKoq3X8qPklcOwbSuoALBgOHHIagvwn1ztoFiNnylwPVzS/BMrKKatruG4AzaggAjsUsinjlPVOW52RXP0eDL7DCbpT3boR1fXbrOnah35XdV4qxI2lfYKpcC1RT09xmuaidzxg2YeIiP6UnDQSFuJ0i2r4WGK6H2ZFdDThEdHEvGPgV73qqwN/Owbd+Q+IjfuAUiAwNAzdhWzixkYSPHYisz7R0LurvXVPwqKHYMmeS1jURMKeWMDBDk4LAwLHPYn/yY3EjI0kOCG74YObnYKYtygMi34WYaGRBI+dwuLDfZixMMZ26tk8Q/4ywsdGEhYVS/i4iaz4LoikWPvdSCFubm38uMDVso5rT0cfvNx57slixmC2oNH64GW/Au2s2oyhBrx8tI4L1K1n7ZPll1p03q1cSp0FU9UVzitEG7i5Hhe4Yhq8fNwMJQCNFp1PE6EE0EmL7qpCCUefrihYOlzFvELcwH5mwSSEuBlIMAkhPI4EkxDC40gwCSE8jgSTEMLjSDAJITyOBJMQwuNIMAkhPI4EkxDC40gwCSE8jgSTEMLjSDAJITyOBJMQwuNIMAkhPI4EkxDC40gwCSE8jgSTEMLjSDAJITyOBJMQwuNIMAkhPI4EkxDC40gwCSE8jgSTEMLjSDAJITyOBJMQwuNIMAkhPI4EkxDC4/x/D0X4qkQ8mCEAAAAASUVORK5CYII=;" vertex="1" parent="1">
                    <mxGeometry x="1398" y="820" width="294" height="751" as="geometry"/>
                </mxCell>
                <mxCell id="22" value="" style="whiteSpace=wrap;html=1;fillColor=none;strokeColor=#FF6666;strokeWidth=5;" vertex="1" parent="1">
                    <mxGeometry x="1420" y="1308" width="120" height="30" as="geometry"/>
                </mxCell>
            </root>
        </mxGraphModel>
    </diagram>
</mxfile>